G75*
G70*
%OFA0B0*%
%FSLAX24Y24*%
%IPPOS*%
%LPD*%
%AMOC8*
5,1,8,0,0,1.08239X$1,22.5*
%
%ADD10C,0.0160*%
%ADD11C,0.0520*%
%ADD12R,0.0394X0.0551*%
%ADD13C,0.0660*%
%ADD14R,0.0630X0.0512*%
%ADD15R,0.0512X0.0630*%
%ADD16R,0.0236X0.0866*%
%ADD17R,0.0787X0.0630*%
%ADD18R,0.0701X0.0850*%
%ADD19C,0.0119*%
%ADD20OC8,0.0630*%
%ADD21C,0.0630*%
%ADD22R,0.0591X0.0512*%
%ADD23R,0.0394X0.0591*%
%ADD24R,0.0394X0.0787*%
%ADD25C,0.0866*%
%ADD26C,0.0705*%
%ADD27OC8,0.0520*%
%ADD28R,0.0512X0.0591*%
%ADD29R,0.0472X0.0472*%
%ADD30C,0.0320*%
%ADD31C,0.0240*%
%ADD32C,0.0500*%
%ADD33OC8,0.0396*%
%ADD34C,0.0100*%
D10*
X006692Y004844D02*
X006692Y005928D01*
X006692Y006125D01*
X006692Y006125D01*
X006576Y006635D01*
X006576Y006635D01*
X006349Y007106D01*
X006349Y007106D01*
X006023Y007515D01*
X005615Y007841D01*
X005614Y007841D01*
X005144Y008068D01*
X005143Y008068D01*
X004634Y008184D01*
X004634Y008184D01*
X004436Y008184D01*
X004383Y008184D01*
X004372Y008184D01*
X004309Y008184D01*
X003352Y008184D01*
X003352Y014384D01*
X038892Y014384D01*
X038892Y008184D01*
X037809Y008184D01*
X037809Y008184D01*
X037611Y008184D01*
X037101Y008068D01*
X036630Y007841D01*
X036222Y007515D01*
X036222Y007515D01*
X035896Y007106D01*
X035669Y006635D01*
X035552Y006125D01*
X035552Y005928D01*
X035552Y004844D01*
X025418Y004844D01*
X025461Y004887D01*
X026348Y005774D01*
X026488Y005774D01*
X026701Y005862D01*
X026864Y006026D01*
X026872Y006046D01*
X026881Y006026D01*
X027044Y005862D01*
X027257Y005774D01*
X027488Y005774D01*
X027701Y005862D01*
X027864Y006026D01*
X027872Y006046D01*
X027881Y006026D01*
X028044Y005862D01*
X028257Y005774D01*
X028488Y005774D01*
X028701Y005862D01*
X028864Y006026D01*
X028872Y006046D01*
X028881Y006026D01*
X029044Y005862D01*
X029257Y005774D01*
X029488Y005774D01*
X029701Y005862D01*
X029864Y006026D01*
X029872Y006046D01*
X029881Y006026D01*
X030044Y005862D01*
X030257Y005774D01*
X030488Y005774D01*
X030701Y005862D01*
X030864Y006026D01*
X030872Y006046D01*
X030881Y006026D01*
X031044Y005862D01*
X031257Y005774D01*
X031488Y005774D01*
X031701Y005862D01*
X031864Y006026D01*
X031872Y006046D01*
X031881Y006026D01*
X032044Y005862D01*
X032257Y005774D01*
X032488Y005774D01*
X032701Y005862D01*
X032864Y006026D01*
X032952Y006239D01*
X032952Y006989D01*
X032864Y007203D01*
X032701Y007366D01*
X032488Y007454D01*
X032257Y007454D01*
X032044Y007366D01*
X031881Y007203D01*
X031872Y007182D01*
X031864Y007203D01*
X031701Y007366D01*
X031488Y007454D01*
X031257Y007454D01*
X031044Y007366D01*
X030881Y007203D01*
X030872Y007182D01*
X030864Y007203D01*
X030701Y007366D01*
X030488Y007454D01*
X030257Y007454D01*
X030044Y007366D01*
X029881Y007203D01*
X029872Y007182D01*
X029864Y007203D01*
X029701Y007366D01*
X029488Y007454D01*
X029257Y007454D01*
X029044Y007366D01*
X028881Y007203D01*
X028872Y007182D01*
X028864Y007203D01*
X028858Y007209D01*
X028869Y007213D01*
X028959Y007303D01*
X029007Y007420D01*
X029007Y008060D01*
X028985Y008114D01*
X029007Y008169D01*
X037546Y008169D01*
X037611Y008184D02*
X037611Y008184D01*
X037101Y008068D02*
X037101Y008068D01*
X036983Y008011D02*
X029007Y008011D01*
X029007Y008169D02*
X029007Y008808D01*
X028959Y008925D01*
X028869Y009015D01*
X028858Y009020D01*
X028864Y009026D01*
X028872Y009046D01*
X028881Y009026D01*
X029044Y008862D01*
X029257Y008774D01*
X029488Y008774D01*
X029701Y008862D01*
X029864Y009026D01*
X029872Y009046D01*
X029881Y009026D01*
X030044Y008862D01*
X030257Y008774D01*
X030488Y008774D01*
X030701Y008862D01*
X030864Y009026D01*
X030872Y009046D01*
X030881Y009026D01*
X031044Y008862D01*
X031257Y008774D01*
X031488Y008774D01*
X031701Y008862D01*
X031864Y009026D01*
X031872Y009046D01*
X031881Y009026D01*
X032044Y008862D01*
X032257Y008774D01*
X032488Y008774D01*
X032701Y008862D01*
X032864Y009026D01*
X032952Y009239D01*
X032952Y009989D01*
X032864Y010203D01*
X032701Y010366D01*
X032488Y010454D01*
X032257Y010454D01*
X032044Y010366D01*
X031881Y010203D01*
X031872Y010182D01*
X031864Y010203D01*
X031701Y010366D01*
X031488Y010454D01*
X031257Y010454D01*
X031044Y010366D01*
X030881Y010203D01*
X030872Y010182D01*
X030864Y010203D01*
X030701Y010366D01*
X030488Y010454D01*
X030257Y010454D01*
X030044Y010366D01*
X029881Y010203D01*
X029872Y010182D01*
X029864Y010203D01*
X029703Y010363D01*
X029731Y010363D01*
X030093Y010725D01*
X030093Y011236D01*
X029731Y011597D01*
X029665Y011597D01*
X029455Y011684D01*
X029229Y011684D01*
X028558Y011684D01*
X028543Y011721D01*
X028453Y011811D01*
X028336Y011859D01*
X027508Y011859D01*
X027390Y011811D01*
X027300Y011721D01*
X027251Y011603D01*
X027251Y010625D01*
X027300Y010508D01*
X027354Y010454D01*
X027257Y010454D01*
X027044Y010366D01*
X026881Y010203D01*
X026872Y010182D01*
X026864Y010203D01*
X026701Y010366D01*
X026488Y010454D01*
X026257Y010454D01*
X026044Y010366D01*
X025881Y010203D01*
X025872Y010182D01*
X025864Y010203D01*
X025701Y010366D01*
X025488Y010454D01*
X025257Y010454D01*
X025044Y010366D01*
X024881Y010203D01*
X024872Y010182D01*
X024864Y010203D01*
X024701Y010366D01*
X024488Y010454D01*
X024257Y010454D01*
X024044Y010366D01*
X023881Y010203D01*
X023795Y009996D01*
X023780Y010043D01*
X023749Y010105D01*
X023708Y010161D01*
X023659Y010210D01*
X023603Y010250D01*
X023541Y010282D01*
X023475Y010303D01*
X023407Y010314D01*
X023373Y010314D01*
X023373Y009614D01*
X023373Y008914D01*
X023407Y008914D01*
X023420Y008916D01*
X023420Y008536D01*
X023324Y008536D01*
X023324Y008440D01*
X022897Y008440D01*
X022897Y008405D01*
X022483Y008819D01*
X022439Y008925D01*
X022349Y009015D01*
X022231Y009064D01*
X021689Y009064D01*
X021763Y009137D01*
X022053Y009428D01*
X022580Y009428D01*
X022697Y009477D01*
X022787Y009567D01*
X022836Y009684D01*
X022836Y010399D01*
X022909Y010369D01*
X023737Y010369D01*
X023855Y010418D01*
X023945Y010508D01*
X023994Y010625D01*
X023994Y011603D01*
X023945Y011721D01*
X023855Y011811D01*
X023737Y011859D01*
X023431Y011859D01*
X023045Y012245D01*
X023045Y013100D01*
X022943Y013348D01*
X022753Y013537D01*
X022506Y013639D01*
X022239Y013639D01*
X021991Y013537D01*
X021802Y013348D01*
X021735Y013184D01*
X021010Y013184D01*
X020943Y013348D01*
X020753Y013537D01*
X020506Y013639D01*
X020239Y013639D01*
X019991Y013537D01*
X019802Y013348D01*
X019700Y013100D01*
X019700Y012245D01*
X019314Y011859D01*
X019008Y011859D01*
X018890Y011811D01*
X018800Y011721D01*
X018751Y011603D01*
X018751Y010625D01*
X018800Y010508D01*
X018890Y010418D01*
X019008Y010369D01*
X019836Y010369D01*
X019909Y010399D01*
X019909Y009915D01*
X019896Y009902D01*
X019783Y009789D01*
X019722Y009642D01*
X019722Y009251D01*
X019623Y009251D01*
X019623Y008638D01*
X019622Y008638D01*
X019622Y008637D01*
X019623Y008637D01*
X019623Y008025D01*
X019733Y008025D01*
X019733Y008023D01*
X019823Y007933D01*
X019941Y007885D01*
X020304Y007885D01*
X020372Y007913D01*
X020441Y007885D01*
X020804Y007885D01*
X020872Y007913D01*
X020941Y007885D01*
X021304Y007885D01*
X021397Y007923D01*
X021397Y007788D01*
X021824Y007788D01*
X021824Y007692D01*
X021610Y007692D01*
X021599Y007703D01*
X021452Y007764D01*
X020543Y007764D01*
X020202Y007764D01*
X019043Y007764D01*
X018896Y007703D01*
X018783Y007591D01*
X018179Y006986D01*
X018179Y007077D01*
X018130Y007195D01*
X018040Y007285D01*
X018022Y007292D01*
X018022Y007423D01*
X018119Y007463D01*
X018209Y007553D01*
X018257Y007670D01*
X018257Y008310D01*
X018209Y008427D01*
X018119Y008517D01*
X018117Y008518D01*
X018117Y008690D01*
X017671Y008690D01*
X017671Y008786D01*
X018117Y008786D01*
X018117Y009018D01*
X018105Y009063D01*
X018081Y009105D01*
X018048Y009138D01*
X018007Y009162D01*
X017961Y009174D01*
X017670Y009174D01*
X017670Y008786D01*
X017574Y008786D01*
X017574Y008690D01*
X017127Y008690D01*
X017127Y008518D01*
X017126Y008517D01*
X017036Y008427D01*
X016997Y008334D01*
X016959Y008427D01*
X016869Y008517D01*
X016867Y008518D01*
X016867Y008690D01*
X016421Y008690D01*
X016421Y008786D01*
X016867Y008786D01*
X016867Y009018D01*
X016855Y009063D01*
X016831Y009105D01*
X016798Y009138D01*
X016757Y009162D01*
X016711Y009174D01*
X016420Y009174D01*
X016420Y008786D01*
X016324Y008786D01*
X016324Y008690D01*
X015877Y008690D01*
X015877Y008518D01*
X015876Y008517D01*
X015786Y008427D01*
X015747Y008334D01*
X015709Y008427D01*
X015619Y008517D01*
X015617Y008518D01*
X015617Y008690D01*
X015171Y008690D01*
X015171Y008786D01*
X015617Y008786D01*
X015617Y009018D01*
X015605Y009063D01*
X015581Y009105D01*
X015548Y009138D01*
X015507Y009162D01*
X015461Y009174D01*
X015170Y009174D01*
X015170Y008786D01*
X015074Y008786D01*
X015074Y008690D01*
X014627Y008690D01*
X014627Y008518D01*
X014626Y008517D01*
X014543Y008434D01*
X013934Y008434D01*
X013816Y008385D01*
X013813Y008382D01*
X013408Y008382D01*
X013290Y008264D01*
X013257Y008264D01*
X013257Y008810D01*
X013235Y008864D01*
X013257Y008919D01*
X013257Y009558D01*
X013209Y009675D01*
X013170Y009714D01*
X013582Y009714D01*
X013821Y009813D01*
X014003Y009996D01*
X014102Y010235D01*
X014102Y010493D01*
X014003Y010732D01*
X013872Y010864D01*
X014153Y010864D01*
X014153Y010884D02*
X014153Y010625D01*
X014202Y010508D01*
X014292Y010418D01*
X014409Y010369D01*
X015237Y010369D01*
X015355Y010418D01*
X015445Y010508D01*
X015494Y010625D01*
X015494Y011306D01*
X015821Y011634D01*
X015922Y011634D01*
X015907Y011609D01*
X015895Y011563D01*
X015895Y011194D01*
X016345Y011194D01*
X016345Y011034D01*
X015895Y011034D01*
X015895Y010665D01*
X015907Y010619D01*
X015931Y010578D01*
X015965Y010545D01*
X016006Y010521D01*
X016051Y010509D01*
X016346Y010509D01*
X016346Y011034D01*
X016505Y011034D01*
X016505Y010509D01*
X016800Y010509D01*
X016845Y010521D01*
X016886Y010545D01*
X016920Y010578D01*
X016944Y010619D01*
X016956Y010665D01*
X016956Y011034D01*
X016506Y011034D01*
X016506Y011194D01*
X016956Y011194D01*
X016956Y011563D01*
X016944Y011609D01*
X016920Y011650D01*
X016886Y011683D01*
X016845Y011707D01*
X016800Y011719D01*
X016781Y011719D01*
X016943Y011881D01*
X017045Y012128D01*
X017045Y013100D01*
X016943Y013348D01*
X016753Y013537D01*
X016506Y013639D01*
X016239Y013639D01*
X015991Y013537D01*
X015802Y013348D01*
X015700Y013100D01*
X015700Y012594D01*
X015527Y012594D01*
X015351Y012521D01*
X015216Y012386D01*
X014689Y011859D01*
X014409Y011859D01*
X014372Y011844D01*
X013892Y011844D01*
X013872Y011864D01*
X014003Y011996D01*
X014102Y012235D01*
X014102Y012493D01*
X014003Y012732D01*
X013821Y012915D01*
X013582Y013014D01*
X013072Y013014D01*
X013072Y013723D01*
X013024Y013841D01*
X012934Y013931D01*
X012816Y013979D01*
X012177Y013979D01*
X012059Y013931D01*
X011969Y013841D01*
X011969Y013839D01*
X011796Y013839D01*
X011796Y013412D01*
X011700Y013412D01*
X011700Y013316D01*
X011313Y013316D01*
X011313Y013045D01*
X011325Y012999D01*
X011348Y012958D01*
X011382Y012925D01*
X011423Y012901D01*
X011469Y012889D01*
X011700Y012889D01*
X011700Y013316D01*
X011796Y013316D01*
X011796Y012889D01*
X011969Y012889D01*
X011969Y012888D01*
X012016Y012840D01*
X012016Y012836D01*
X012016Y012645D01*
X012019Y012638D01*
X011724Y012638D01*
X011709Y012675D01*
X011619Y012765D01*
X011501Y012814D01*
X010744Y012814D01*
X010626Y012765D01*
X010536Y012675D01*
X010487Y012558D01*
X010487Y011919D01*
X010510Y011864D01*
X010487Y011810D01*
X010487Y011170D01*
X010536Y011053D01*
X010626Y010963D01*
X010722Y010923D01*
X010722Y010822D01*
X010654Y010754D01*
X010606Y010636D01*
X010606Y009958D01*
X010635Y009887D01*
X010528Y009887D01*
X010482Y009874D01*
X010441Y009851D01*
X010408Y009817D01*
X010384Y009776D01*
X010372Y009730D01*
X010372Y009449D01*
X010730Y009449D01*
X010730Y009413D01*
X010372Y009413D01*
X010372Y009132D01*
X010384Y009086D01*
X010408Y009045D01*
X010441Y009011D01*
X010482Y008988D01*
X010528Y008975D01*
X010730Y008975D01*
X010730Y009412D01*
X010767Y009412D01*
X010767Y008975D01*
X010969Y008975D01*
X011015Y008988D01*
X011021Y008991D01*
X011028Y008974D01*
X011056Y008947D01*
X010969Y008860D01*
X010969Y008859D01*
X010796Y008859D01*
X010796Y008412D01*
X010700Y008412D01*
X010700Y008316D01*
X010313Y008316D01*
X010313Y008025D01*
X010325Y007980D01*
X010348Y007939D01*
X010382Y007905D01*
X010423Y007881D01*
X010469Y007869D01*
X010700Y007869D01*
X010700Y008316D01*
X010796Y008316D01*
X010796Y007869D01*
X010969Y007869D01*
X010969Y007868D01*
X011059Y007778D01*
X011177Y007729D01*
X011816Y007729D01*
X011934Y007778D01*
X012024Y007868D01*
X012072Y007985D01*
X012072Y008017D01*
X012126Y007963D01*
X012244Y007914D01*
X012272Y007914D01*
X012283Y007887D01*
X012430Y007741D01*
X012292Y007604D01*
X012292Y007124D01*
X012362Y007054D01*
X012190Y007054D01*
X011932Y006796D01*
X011932Y006614D01*
X011932Y006432D01*
X012190Y006174D01*
X012372Y006174D01*
X012372Y006614D01*
X011932Y006614D01*
X012372Y006614D01*
X012372Y006614D01*
X012373Y006614D01*
X012373Y006174D01*
X012555Y006174D01*
X012792Y006412D01*
X012792Y006374D01*
X012892Y006274D01*
X012892Y006215D01*
X012809Y006181D01*
X012719Y006091D01*
X012719Y006089D01*
X012546Y006089D01*
X012546Y005662D01*
X012450Y005662D01*
X012450Y005566D01*
X012063Y005566D01*
X012063Y005295D01*
X012075Y005249D01*
X012098Y005208D01*
X012132Y005175D01*
X012173Y005151D01*
X012219Y005139D01*
X012450Y005139D01*
X012450Y005566D01*
X012546Y005566D01*
X012546Y005139D01*
X012719Y005139D01*
X012719Y005138D01*
X012809Y005048D01*
X012927Y004999D01*
X013333Y004999D01*
X013417Y004964D01*
X015952Y004964D01*
X016099Y005025D01*
X016211Y005137D01*
X016469Y005394D01*
X016672Y005394D01*
X016790Y005443D01*
X016880Y005533D01*
X016884Y005544D01*
X017110Y005544D01*
X017115Y005533D01*
X017205Y005443D01*
X017323Y005394D01*
X017922Y005394D01*
X018040Y005443D01*
X018130Y005533D01*
X018179Y005651D01*
X018179Y005855D01*
X019184Y006860D01*
X019184Y006094D01*
X019222Y006002D01*
X019222Y005909D01*
X019283Y005762D01*
X019396Y005650D01*
X019646Y005400D01*
X019793Y005339D01*
X019952Y005339D01*
X021582Y005339D01*
X022077Y004844D01*
X006692Y004844D01*
X006692Y004998D02*
X013334Y004998D01*
X013496Y005364D02*
X013246Y005614D01*
X013496Y005364D02*
X015872Y005364D01*
X016372Y005864D01*
X016372Y005951D01*
X016821Y005474D02*
X017174Y005474D01*
X016389Y005315D02*
X021605Y005315D01*
X021764Y005157D02*
X016231Y005157D01*
X016034Y004998D02*
X021923Y004998D01*
X022372Y005114D02*
X021747Y005739D01*
X019872Y005739D01*
X019622Y005989D01*
X019622Y006590D01*
X019184Y006584D02*
X018908Y006584D01*
X019066Y006742D02*
X019184Y006742D01*
X019184Y006425D02*
X018749Y006425D01*
X018591Y006267D02*
X019184Y006267D01*
X019184Y006108D02*
X018432Y006108D01*
X018274Y005950D02*
X019222Y005950D01*
X019272Y005791D02*
X018179Y005791D01*
X018171Y005632D02*
X019413Y005632D01*
X019572Y005474D02*
X018071Y005474D01*
X017709Y005951D02*
X019122Y007364D01*
X020122Y007364D01*
X020122Y006590D01*
X020622Y006590D02*
X020622Y007364D01*
X021372Y007364D01*
X022872Y005864D01*
X023872Y005864D01*
X024372Y006364D01*
X024372Y006614D01*
X025372Y006614D02*
X025372Y006364D01*
X024497Y005489D01*
X022622Y005489D01*
X021521Y006590D01*
X021122Y006590D01*
X022243Y007059D02*
X022821Y007059D01*
X022792Y006989D02*
X022792Y006510D01*
X021998Y007304D01*
X022191Y007304D01*
X022237Y007316D01*
X022278Y007340D01*
X022312Y007374D01*
X022335Y007415D01*
X022348Y007460D01*
X022348Y007692D01*
X021921Y007692D01*
X021921Y007788D01*
X022348Y007788D01*
X022348Y007823D01*
X022657Y007513D01*
X022762Y007409D01*
X022806Y007303D01*
X022892Y007216D01*
X022892Y007214D01*
X022881Y007203D01*
X022792Y006989D01*
X022792Y006901D02*
X022401Y006901D01*
X022560Y006742D02*
X022792Y006742D01*
X022792Y006584D02*
X022718Y006584D01*
X022891Y007218D02*
X022084Y007218D01*
X022313Y007376D02*
X022775Y007376D01*
X022636Y007535D02*
X022348Y007535D01*
X022477Y007694D02*
X021921Y007694D01*
X021824Y007694D02*
X021609Y007694D01*
X021397Y007852D02*
X018257Y007852D01*
X018257Y007694D02*
X018886Y007694D01*
X018728Y007535D02*
X018191Y007535D01*
X018022Y007376D02*
X018569Y007376D01*
X018411Y007218D02*
X018107Y007218D01*
X018179Y007059D02*
X018252Y007059D01*
X017622Y006777D02*
X017622Y007990D01*
X018257Y008011D02*
X019746Y008011D01*
X019622Y008025D02*
X019622Y008637D01*
X019324Y008637D01*
X019324Y008181D01*
X019337Y008135D01*
X019360Y008094D01*
X019394Y008061D01*
X019435Y008037D01*
X019481Y008025D01*
X019622Y008025D01*
X019622Y008169D02*
X019623Y008169D01*
X019622Y008328D02*
X019623Y008328D01*
X019622Y008486D02*
X019623Y008486D01*
X019622Y008638D02*
X019324Y008638D01*
X019324Y009094D01*
X019337Y009140D01*
X019360Y009181D01*
X019394Y009215D01*
X019435Y009238D01*
X019481Y009251D01*
X019622Y009251D01*
X019622Y008638D01*
X019622Y008645D02*
X019623Y008645D01*
X019622Y008803D02*
X019623Y008803D01*
X019622Y008962D02*
X019623Y008962D01*
X019622Y009120D02*
X019623Y009120D01*
X019722Y009279D02*
X013257Y009279D01*
X013257Y009437D02*
X019722Y009437D01*
X019722Y009596D02*
X013241Y009596D01*
X013679Y009755D02*
X019769Y009755D01*
X019907Y009913D02*
X013921Y009913D01*
X014035Y010072D02*
X019909Y010072D01*
X019909Y010230D02*
X014100Y010230D01*
X014102Y010389D02*
X014361Y010389D01*
X014185Y010547D02*
X014080Y010547D01*
X014014Y010706D02*
X014153Y010706D01*
X014153Y010884D02*
X013892Y010884D01*
X013872Y010864D01*
X013122Y010364D02*
X011189Y010364D01*
X011122Y010297D01*
X011122Y011490D01*
X010487Y011499D02*
X008192Y011499D01*
X008192Y011623D02*
X008058Y012124D01*
X007799Y012574D01*
X007432Y012940D01*
X006983Y013200D01*
X006482Y013334D01*
X005963Y013334D01*
X005462Y013200D01*
X005013Y012940D01*
X004646Y012574D01*
X004387Y012124D01*
X004252Y011623D01*
X004252Y011105D01*
X004387Y010604D01*
X004646Y010154D01*
X005013Y009788D01*
X005462Y009528D01*
X005963Y009394D01*
X006482Y009394D01*
X006983Y009528D01*
X007432Y009788D01*
X007799Y010154D01*
X008058Y010604D01*
X008192Y011105D01*
X008192Y011623D01*
X008183Y011657D02*
X010487Y011657D01*
X010490Y011816D02*
X008141Y011816D01*
X008098Y011974D02*
X010487Y011974D01*
X010487Y012133D02*
X008053Y012133D01*
X007962Y012291D02*
X010487Y012291D01*
X010487Y012450D02*
X007870Y012450D01*
X007764Y012608D02*
X010508Y012608D01*
X010630Y012767D02*
X007606Y012767D01*
X007447Y012925D02*
X011381Y012925D01*
X011313Y013084D02*
X007183Y013084D01*
X006823Y013243D02*
X011313Y013243D01*
X011313Y013412D02*
X011700Y013412D01*
X011700Y013839D01*
X011469Y013839D01*
X011423Y013827D01*
X011382Y013803D01*
X011348Y013770D01*
X011325Y013729D01*
X011313Y013683D01*
X011313Y013412D01*
X011313Y013560D02*
X003352Y013560D01*
X003352Y013718D02*
X011322Y013718D01*
X011700Y013718D02*
X011796Y013718D01*
X011796Y013560D02*
X011700Y013560D01*
X011700Y013401D02*
X003352Y013401D01*
X003352Y013243D02*
X005621Y013243D01*
X005261Y013084D02*
X003352Y013084D01*
X003352Y012925D02*
X004998Y012925D01*
X004839Y012767D02*
X003352Y012767D01*
X003352Y012608D02*
X004681Y012608D01*
X004575Y012450D02*
X003352Y012450D01*
X003352Y012291D02*
X004483Y012291D01*
X004391Y012133D02*
X003352Y012133D01*
X003352Y011974D02*
X004346Y011974D01*
X004304Y011816D02*
X003352Y011816D01*
X003352Y011657D02*
X004261Y011657D01*
X004252Y011499D02*
X003352Y011499D01*
X003352Y011340D02*
X004252Y011340D01*
X004252Y011181D02*
X003352Y011181D01*
X003352Y011023D02*
X004274Y011023D01*
X004317Y010864D02*
X003352Y010864D01*
X003352Y010706D02*
X004359Y010706D01*
X004419Y010547D02*
X003352Y010547D01*
X003352Y010389D02*
X004511Y010389D01*
X004602Y010230D02*
X003352Y010230D01*
X003352Y010072D02*
X004729Y010072D01*
X004887Y009913D02*
X003352Y009913D01*
X003352Y009755D02*
X005070Y009755D01*
X005345Y009596D02*
X003352Y009596D01*
X003352Y009437D02*
X005801Y009437D01*
X006644Y009437D02*
X010730Y009437D01*
X010730Y009279D02*
X010767Y009279D01*
X010767Y009120D02*
X010730Y009120D01*
X011041Y008962D02*
X003352Y008962D01*
X003352Y009120D02*
X010375Y009120D01*
X010372Y009279D02*
X003352Y009279D01*
X003352Y008803D02*
X010362Y008803D01*
X010348Y008790D02*
X010325Y008749D01*
X010313Y008703D01*
X010313Y008412D01*
X010700Y008412D01*
X010700Y008859D01*
X010469Y008859D01*
X010423Y008847D01*
X010382Y008823D01*
X010348Y008790D01*
X010313Y008645D02*
X003352Y008645D01*
X003352Y008486D02*
X010313Y008486D01*
X010313Y008169D02*
X004699Y008169D01*
X004436Y008184D02*
X004436Y008184D01*
X005262Y008011D02*
X010316Y008011D01*
X010700Y008011D02*
X010796Y008011D01*
X010796Y008169D02*
X010700Y008169D01*
X010700Y008328D02*
X003352Y008328D01*
X005591Y007852D02*
X010985Y007852D01*
X010796Y008486D02*
X010700Y008486D01*
X010700Y008645D02*
X010796Y008645D01*
X010796Y008803D02*
X010700Y008803D01*
X011496Y008364D02*
X011496Y009431D01*
X011439Y009238D01*
X012622Y009238D01*
X013257Y009120D02*
X014679Y009120D01*
X014663Y009105D02*
X014640Y009063D01*
X014627Y009018D01*
X014627Y008786D01*
X015074Y008786D01*
X015074Y009174D01*
X014784Y009174D01*
X014738Y009162D01*
X014697Y009138D01*
X014663Y009105D01*
X014627Y008962D02*
X013257Y008962D01*
X013257Y008803D02*
X014627Y008803D01*
X014627Y008645D02*
X013257Y008645D01*
X013257Y008486D02*
X014595Y008486D01*
X015074Y008803D02*
X015170Y008803D01*
X015170Y008962D02*
X015074Y008962D01*
X015074Y009120D02*
X015170Y009120D01*
X015566Y009120D02*
X015929Y009120D01*
X015913Y009105D02*
X015890Y009063D01*
X015877Y009018D01*
X015877Y008786D01*
X016324Y008786D01*
X016324Y009174D01*
X016034Y009174D01*
X015988Y009162D01*
X015947Y009138D01*
X015913Y009105D01*
X015877Y008962D02*
X015617Y008962D01*
X015617Y008803D02*
X015877Y008803D01*
X015877Y008645D02*
X015617Y008645D01*
X015650Y008486D02*
X015845Y008486D01*
X016324Y008803D02*
X016420Y008803D01*
X016420Y008962D02*
X016324Y008962D01*
X016324Y009120D02*
X016420Y009120D01*
X016816Y009120D02*
X017179Y009120D01*
X017163Y009105D02*
X017140Y009063D01*
X017127Y009018D01*
X017127Y008786D01*
X017574Y008786D01*
X017574Y009174D01*
X017284Y009174D01*
X017238Y009162D01*
X017197Y009138D01*
X017163Y009105D01*
X017127Y008962D02*
X016867Y008962D01*
X016867Y008803D02*
X017127Y008803D01*
X017127Y008645D02*
X016867Y008645D01*
X016900Y008486D02*
X017095Y008486D01*
X017574Y008803D02*
X017670Y008803D01*
X017670Y008962D02*
X017574Y008962D01*
X017574Y009120D02*
X017670Y009120D01*
X018066Y009120D02*
X019331Y009120D01*
X019324Y008962D02*
X018117Y008962D01*
X018117Y008803D02*
X019324Y008803D01*
X019324Y008645D02*
X018117Y008645D01*
X018150Y008486D02*
X019324Y008486D01*
X019324Y008328D02*
X018250Y008328D01*
X018257Y008169D02*
X019327Y008169D01*
X020122Y008638D02*
X020122Y009563D01*
X020622Y010063D01*
X019909Y010389D02*
X019884Y010389D01*
X018960Y010389D02*
X015285Y010389D01*
X015461Y010547D02*
X015962Y010547D01*
X015895Y010706D02*
X015494Y010706D01*
X015494Y010864D02*
X015895Y010864D01*
X015895Y011023D02*
X015494Y011023D01*
X015494Y011181D02*
X016345Y011181D01*
X016346Y011023D02*
X016505Y011023D01*
X016506Y011181D02*
X017739Y011181D01*
X017739Y011194D02*
X017739Y011034D01*
X017289Y011034D01*
X017289Y010665D01*
X017301Y010619D01*
X017325Y010578D01*
X017358Y010545D01*
X017399Y010521D01*
X017445Y010509D01*
X017739Y010509D01*
X017739Y011034D01*
X017899Y011034D01*
X017899Y010509D01*
X018193Y010509D01*
X018239Y010521D01*
X018280Y010545D01*
X018314Y010578D01*
X018337Y010619D01*
X018350Y010665D01*
X018350Y011034D01*
X017899Y011034D01*
X017899Y011194D01*
X017739Y011194D01*
X017289Y011194D01*
X017289Y011563D01*
X017301Y011609D01*
X017325Y011650D01*
X017358Y011683D01*
X017399Y011707D01*
X017445Y011719D01*
X017739Y011719D01*
X017739Y011194D01*
X017739Y011340D02*
X017899Y011340D01*
X017899Y011194D02*
X017899Y011719D01*
X018193Y011719D01*
X018239Y011707D01*
X018280Y011683D01*
X018314Y011650D01*
X018337Y011609D01*
X018350Y011563D01*
X018350Y011194D01*
X017899Y011194D01*
X017899Y011181D02*
X018751Y011181D01*
X018751Y011023D02*
X018350Y011023D01*
X018350Y010864D02*
X018751Y010864D01*
X018751Y010706D02*
X018350Y010706D01*
X018283Y010547D02*
X018784Y010547D01*
X017899Y010547D02*
X017739Y010547D01*
X017739Y010706D02*
X017899Y010706D01*
X017899Y010864D02*
X017739Y010864D01*
X017739Y011023D02*
X017899Y011023D01*
X018350Y011340D02*
X018751Y011340D01*
X018751Y011499D02*
X018350Y011499D01*
X018306Y011657D02*
X018774Y011657D01*
X018665Y011816D02*
X018902Y011816D01*
X018779Y011915D02*
X018719Y011855D01*
X018652Y011806D01*
X018577Y011768D01*
X018497Y011742D01*
X018414Y011729D01*
X018410Y011729D01*
X018410Y012576D01*
X018335Y012576D01*
X018335Y011729D01*
X018331Y011729D01*
X018248Y011742D01*
X018168Y011768D01*
X018093Y011806D01*
X018026Y011855D01*
X017966Y011915D01*
X017917Y011982D01*
X017879Y012057D01*
X017853Y012137D01*
X017840Y012220D01*
X017840Y012577D01*
X018335Y012577D01*
X018335Y012652D01*
X018335Y013499D01*
X018331Y013499D01*
X018248Y013486D01*
X018168Y013460D01*
X018093Y013422D01*
X018026Y013373D01*
X017966Y013314D01*
X017917Y013246D01*
X017879Y013171D01*
X017853Y013091D01*
X017840Y013009D01*
X017840Y012652D01*
X018335Y012652D01*
X018410Y012652D01*
X018410Y013499D01*
X018414Y013499D01*
X018497Y013486D01*
X018577Y013460D01*
X018652Y013422D01*
X018719Y013373D01*
X018779Y013314D01*
X018828Y013246D01*
X018866Y013171D01*
X018892Y013091D01*
X018905Y013009D01*
X018905Y012652D01*
X018410Y012652D01*
X018410Y012577D01*
X018905Y012577D01*
X018905Y012220D01*
X018892Y012137D01*
X018866Y012057D01*
X018828Y011982D01*
X018779Y011915D01*
X018822Y011974D02*
X019429Y011974D01*
X019587Y012133D02*
X018890Y012133D01*
X018905Y012291D02*
X019700Y012291D01*
X019700Y012450D02*
X018905Y012450D01*
X018410Y012450D02*
X018335Y012450D01*
X018335Y012608D02*
X017045Y012608D01*
X017045Y012450D02*
X017840Y012450D01*
X017840Y012291D02*
X017045Y012291D01*
X017045Y012133D02*
X017854Y012133D01*
X017923Y011974D02*
X016981Y011974D01*
X016878Y011816D02*
X018080Y011816D01*
X017899Y011657D02*
X017739Y011657D01*
X017739Y011499D02*
X017899Y011499D01*
X018335Y011816D02*
X018410Y011816D01*
X018410Y011974D02*
X018335Y011974D01*
X018335Y012133D02*
X018410Y012133D01*
X018410Y012291D02*
X018335Y012291D01*
X018410Y012608D02*
X019700Y012608D01*
X019700Y012767D02*
X018905Y012767D01*
X018905Y012925D02*
X019700Y012925D01*
X019700Y013084D02*
X018893Y013084D01*
X018830Y013243D02*
X019759Y013243D01*
X019856Y013401D02*
X018680Y013401D01*
X018410Y013401D02*
X018335Y013401D01*
X018335Y013243D02*
X018410Y013243D01*
X018410Y013084D02*
X018335Y013084D01*
X018335Y012925D02*
X018410Y012925D01*
X018410Y012767D02*
X018335Y012767D01*
X017840Y012767D02*
X017045Y012767D01*
X017045Y012925D02*
X017840Y012925D01*
X017852Y013084D02*
X017045Y013084D01*
X016986Y013243D02*
X017915Y013243D01*
X018064Y013401D02*
X016889Y013401D01*
X016698Y013560D02*
X020047Y013560D01*
X020698Y013560D02*
X022047Y013560D01*
X021856Y013401D02*
X020889Y013401D01*
X020986Y013243D02*
X021759Y013243D01*
X022698Y013560D02*
X026047Y013560D01*
X025991Y013537D02*
X025802Y013348D01*
X025700Y013100D01*
X025700Y012128D01*
X025802Y011881D01*
X025964Y011719D01*
X025945Y011719D01*
X025899Y011707D01*
X025858Y011683D01*
X025825Y011650D01*
X025801Y011609D01*
X025789Y011563D01*
X025789Y011194D01*
X026239Y011194D01*
X026239Y011034D01*
X025789Y011034D01*
X025789Y010665D01*
X025801Y010619D01*
X025825Y010578D01*
X025858Y010545D01*
X025899Y010521D01*
X025945Y010509D01*
X026239Y010509D01*
X026239Y011034D01*
X026399Y011034D01*
X026399Y010509D01*
X026693Y010509D01*
X026739Y010521D01*
X026780Y010545D01*
X026814Y010578D01*
X026837Y010619D01*
X026850Y010665D01*
X026850Y011034D01*
X026399Y011034D01*
X026399Y011194D01*
X026850Y011194D01*
X026850Y011563D01*
X026837Y011609D01*
X026814Y011650D01*
X026780Y011683D01*
X026758Y011696D01*
X026943Y011881D01*
X027045Y012128D01*
X027045Y013100D01*
X026943Y013348D01*
X026753Y013537D01*
X026506Y013639D01*
X026239Y013639D01*
X025991Y013537D01*
X025856Y013401D02*
X024680Y013401D01*
X024652Y013422D02*
X024577Y013460D01*
X024497Y013486D01*
X024414Y013499D01*
X024410Y013499D01*
X024410Y012652D01*
X024335Y012652D01*
X024335Y013499D01*
X024331Y013499D01*
X024248Y013486D01*
X024168Y013460D01*
X024093Y013422D01*
X024026Y013373D01*
X023966Y013314D01*
X023917Y013246D01*
X023879Y013171D01*
X023853Y013091D01*
X023840Y013009D01*
X023840Y012652D01*
X024335Y012652D01*
X024335Y012577D01*
X023840Y012577D01*
X023840Y012220D01*
X023853Y012137D01*
X023879Y012057D01*
X023917Y011982D01*
X023966Y011915D01*
X024026Y011855D01*
X024093Y011806D01*
X024168Y011768D01*
X024248Y011742D01*
X024331Y011729D01*
X024335Y011729D01*
X024335Y012576D01*
X024410Y012576D01*
X024410Y011729D01*
X024414Y011729D01*
X024497Y011742D01*
X024577Y011768D01*
X024652Y011806D01*
X024719Y011855D01*
X024779Y011915D01*
X024828Y011982D01*
X024866Y012057D01*
X024892Y012137D01*
X024905Y012220D01*
X024905Y012577D01*
X024410Y012577D01*
X024410Y012652D01*
X024905Y012652D01*
X024905Y013009D01*
X024892Y013091D01*
X024866Y013171D01*
X024828Y013246D01*
X024779Y013314D01*
X024719Y013373D01*
X024652Y013422D01*
X024410Y013401D02*
X024335Y013401D01*
X024335Y013243D02*
X024410Y013243D01*
X024410Y013084D02*
X024335Y013084D01*
X024335Y012925D02*
X024410Y012925D01*
X024410Y012767D02*
X024335Y012767D01*
X024335Y012608D02*
X023045Y012608D01*
X023045Y012450D02*
X023840Y012450D01*
X023840Y012291D02*
X023045Y012291D01*
X023158Y012133D02*
X023854Y012133D01*
X023923Y011974D02*
X023316Y011974D01*
X023843Y011816D02*
X024080Y011816D01*
X023971Y011657D02*
X024438Y011657D01*
X024431Y011650D02*
X024407Y011609D01*
X024395Y011563D01*
X024395Y011194D01*
X024845Y011194D01*
X024845Y011034D01*
X024395Y011034D01*
X024395Y010665D01*
X024407Y010619D01*
X024431Y010578D01*
X024465Y010545D01*
X024506Y010521D01*
X024551Y010509D01*
X024846Y010509D01*
X024846Y011034D01*
X025005Y011034D01*
X025005Y010509D01*
X025300Y010509D01*
X025345Y010521D01*
X025386Y010545D01*
X025420Y010578D01*
X025444Y010619D01*
X025456Y010665D01*
X025456Y011034D01*
X025006Y011034D01*
X025006Y011194D01*
X025456Y011194D01*
X025456Y011563D01*
X025444Y011609D01*
X025420Y011650D01*
X025386Y011683D01*
X025345Y011707D01*
X025300Y011719D01*
X025005Y011719D01*
X025005Y011194D01*
X024846Y011194D01*
X024846Y011719D01*
X024551Y011719D01*
X024506Y011707D01*
X024465Y011683D01*
X024431Y011650D01*
X024395Y011499D02*
X023994Y011499D01*
X023994Y011340D02*
X024395Y011340D01*
X024395Y011023D02*
X023994Y011023D01*
X023994Y011181D02*
X024845Y011181D01*
X024846Y011023D02*
X025005Y011023D01*
X025006Y011181D02*
X026239Y011181D01*
X026239Y011023D02*
X026399Y011023D01*
X026399Y011181D02*
X027251Y011181D01*
X027251Y011023D02*
X026850Y011023D01*
X026850Y010864D02*
X027251Y010864D01*
X027251Y010706D02*
X026850Y010706D01*
X026783Y010547D02*
X027284Y010547D01*
X027099Y010389D02*
X026645Y010389D01*
X026836Y010230D02*
X026908Y010230D01*
X026399Y010547D02*
X026239Y010547D01*
X026239Y010706D02*
X026399Y010706D01*
X026399Y010864D02*
X026239Y010864D01*
X025789Y010864D02*
X025456Y010864D01*
X025456Y010706D02*
X025789Y010706D01*
X025856Y010547D02*
X025389Y010547D01*
X025645Y010389D02*
X026099Y010389D01*
X025908Y010230D02*
X025836Y010230D01*
X025099Y010389D02*
X024645Y010389D01*
X024462Y010547D02*
X023961Y010547D01*
X023994Y010706D02*
X024395Y010706D01*
X024395Y010864D02*
X023994Y010864D01*
X024846Y010864D02*
X025005Y010864D01*
X025005Y010706D02*
X024846Y010706D01*
X024846Y010547D02*
X025005Y010547D01*
X024908Y010230D02*
X024836Y010230D01*
X024099Y010389D02*
X023785Y010389D01*
X023908Y010230D02*
X023631Y010230D01*
X023766Y010072D02*
X023827Y010072D01*
X023373Y010072D02*
X023372Y010072D01*
X023372Y010230D02*
X023373Y010230D01*
X023372Y010314D02*
X023338Y010314D01*
X023269Y010303D01*
X023204Y010282D01*
X023142Y010250D01*
X023086Y010210D01*
X023037Y010161D01*
X022996Y010105D01*
X022965Y010043D01*
X022943Y009977D01*
X022932Y009909D01*
X022932Y009614D01*
X022932Y009319D01*
X022943Y009251D01*
X022965Y009185D01*
X022996Y009123D01*
X023037Y009067D01*
X023086Y009018D01*
X023142Y008978D01*
X023204Y008946D01*
X023269Y008925D01*
X023276Y008924D01*
X023053Y008924D01*
X023008Y008912D01*
X022967Y008888D01*
X022933Y008855D01*
X022909Y008813D01*
X022897Y008768D01*
X022897Y008536D01*
X023324Y008536D01*
X023324Y008916D01*
X023338Y008914D01*
X023372Y008914D01*
X023372Y009614D01*
X022932Y009614D01*
X023372Y009614D01*
X023372Y009614D01*
X023373Y009614D01*
X023372Y009614D01*
X023372Y010314D01*
X023114Y010230D02*
X022836Y010230D01*
X022836Y010072D02*
X022979Y010072D01*
X022933Y009913D02*
X022836Y009913D01*
X022836Y009755D02*
X022932Y009755D01*
X022932Y009596D02*
X022800Y009596D01*
X022932Y009437D02*
X022603Y009437D01*
X022939Y009279D02*
X021904Y009279D01*
X021746Y009120D02*
X022998Y009120D01*
X023173Y008962D02*
X022402Y008962D01*
X022499Y008803D02*
X022907Y008803D01*
X022897Y008645D02*
X022657Y008645D01*
X022816Y008486D02*
X023324Y008486D01*
X023324Y008645D02*
X023420Y008645D01*
X023420Y008803D02*
X023324Y008803D01*
X023372Y008962D02*
X023373Y008962D01*
X023372Y009120D02*
X023373Y009120D01*
X023372Y009279D02*
X023373Y009279D01*
X023372Y009437D02*
X023373Y009437D01*
X023372Y009596D02*
X023373Y009596D01*
X023372Y009755D02*
X023373Y009755D01*
X023372Y009913D02*
X023373Y009913D01*
X022861Y010389D02*
X022836Y010389D01*
X022122Y010063D02*
X021424Y009364D01*
X020872Y009364D01*
X020622Y009114D01*
X020622Y008638D01*
X021122Y008638D02*
X021147Y008488D01*
X021872Y008488D01*
X022248Y008488D01*
X022996Y007740D01*
X023372Y007740D01*
X027372Y007740D01*
X028372Y007740D01*
X029007Y007694D02*
X036446Y007694D01*
X036630Y007841D02*
X036630Y007841D01*
X036654Y007852D02*
X029007Y007852D01*
X029007Y007535D02*
X036247Y007535D01*
X036222Y007515D02*
X036222Y007515D01*
X036111Y007376D02*
X032675Y007376D01*
X032849Y007218D02*
X035985Y007218D01*
X035896Y007106D02*
X035896Y007106D01*
X035873Y007059D02*
X032923Y007059D01*
X032952Y006901D02*
X035797Y006901D01*
X035720Y006742D02*
X032952Y006742D01*
X032952Y006584D02*
X035657Y006584D01*
X035669Y006635D02*
X035669Y006635D01*
X035621Y006425D02*
X032952Y006425D01*
X032952Y006267D02*
X035585Y006267D01*
X035552Y006125D02*
X035552Y006125D01*
X035552Y006108D02*
X032898Y006108D01*
X032788Y005950D02*
X035552Y005950D01*
X035552Y005928D02*
X035552Y005928D01*
X035552Y005791D02*
X032529Y005791D01*
X032216Y005791D02*
X031529Y005791D01*
X031788Y005950D02*
X031957Y005950D01*
X031216Y005791D02*
X030529Y005791D01*
X030788Y005950D02*
X030957Y005950D01*
X030216Y005791D02*
X029529Y005791D01*
X029788Y005950D02*
X029957Y005950D01*
X029216Y005791D02*
X028529Y005791D01*
X028788Y005950D02*
X028957Y005950D01*
X028216Y005791D02*
X027529Y005791D01*
X027788Y005950D02*
X027957Y005950D01*
X027216Y005791D02*
X026529Y005791D01*
X026788Y005950D02*
X026957Y005950D01*
X026372Y006364D02*
X025122Y005114D01*
X022372Y005114D01*
X025572Y004998D02*
X035552Y004998D01*
X035552Y005157D02*
X025731Y005157D01*
X025889Y005315D02*
X035552Y005315D01*
X035552Y005474D02*
X026048Y005474D01*
X026206Y005632D02*
X035552Y005632D01*
X035393Y004045D02*
X035393Y003444D01*
X035794Y003444D02*
X035794Y004045D01*
X035593Y003844D01*
X035393Y004045D01*
X036093Y003944D02*
X036193Y004045D01*
X036393Y004045D01*
X036493Y003944D01*
X036493Y003544D01*
X036393Y003444D01*
X036193Y003444D01*
X036093Y003544D01*
X036093Y003944D01*
X036793Y004045D02*
X037193Y004045D01*
X036993Y004045D02*
X036993Y003444D01*
X037693Y003444D02*
X037693Y004045D01*
X037893Y004045D02*
X037493Y004045D01*
X038192Y003944D02*
X038292Y004045D01*
X038493Y004045D01*
X038593Y003944D01*
X038593Y003544D01*
X038493Y003444D01*
X038292Y003444D01*
X038192Y003544D01*
X038192Y003944D01*
X038892Y003944D02*
X038892Y003844D01*
X038992Y003744D01*
X039292Y003744D01*
X038992Y003744D02*
X038892Y003644D01*
X038892Y003544D01*
X038992Y003444D01*
X039292Y003444D01*
X039292Y004045D01*
X038992Y004045D01*
X038892Y003944D01*
X031896Y007218D02*
X031849Y007218D01*
X031675Y007376D02*
X032070Y007376D01*
X031070Y007376D02*
X030675Y007376D01*
X030849Y007218D02*
X030896Y007218D01*
X030070Y007376D02*
X029675Y007376D01*
X029849Y007218D02*
X029896Y007218D01*
X029070Y007376D02*
X028989Y007376D01*
X028896Y007218D02*
X028874Y007218D01*
X029007Y008328D02*
X038892Y008328D01*
X038892Y008486D02*
X029007Y008486D01*
X029007Y008645D02*
X038892Y008645D01*
X038892Y008803D02*
X032558Y008803D01*
X032800Y008962D02*
X038892Y008962D01*
X038892Y009120D02*
X032903Y009120D01*
X032952Y009279D02*
X038892Y009279D01*
X038892Y009437D02*
X032952Y009437D01*
X032952Y009596D02*
X038892Y009596D01*
X038892Y009755D02*
X032952Y009755D01*
X032952Y009913D02*
X038892Y009913D01*
X038892Y010072D02*
X032918Y010072D01*
X032836Y010230D02*
X038892Y010230D01*
X038892Y010389D02*
X032645Y010389D01*
X032468Y010604D02*
X033068Y010604D01*
X033154Y010518D01*
X033272Y010469D01*
X033793Y010469D01*
X033910Y010518D01*
X034000Y010608D01*
X034002Y010610D01*
X034104Y010610D01*
X034104Y011165D01*
X034141Y011165D01*
X034141Y010610D01*
X034243Y010610D01*
X034244Y010608D01*
X034334Y010518D01*
X034452Y010469D01*
X034973Y010469D01*
X035091Y010518D01*
X035177Y010604D01*
X035277Y010604D01*
X035468Y010604D01*
X035997Y010604D01*
X036188Y010604D01*
X036364Y010677D01*
X036416Y010729D01*
X036499Y010729D01*
X036732Y010826D01*
X036911Y011004D01*
X037007Y011238D01*
X037007Y011490D01*
X036911Y011724D01*
X036732Y011902D01*
X036646Y011938D01*
X036867Y012159D01*
X036867Y012364D01*
X036373Y012364D01*
X036373Y012364D01*
X036867Y012364D01*
X036867Y012569D01*
X036577Y012859D01*
X036373Y012859D01*
X036373Y012364D01*
X036372Y012364D01*
X036372Y012859D01*
X036167Y012859D01*
X035974Y012665D01*
X035941Y012674D01*
X035670Y012674D01*
X035670Y012286D01*
X035574Y012286D01*
X035574Y012190D01*
X035147Y012190D01*
X035147Y012018D01*
X035146Y012017D01*
X035056Y011927D01*
X035007Y011810D01*
X035007Y011685D01*
X034973Y011699D01*
X034688Y011699D01*
X034691Y011704D01*
X034720Y011795D01*
X034735Y011891D01*
X034735Y012154D01*
X034203Y012154D01*
X034203Y012314D01*
X034735Y012314D01*
X034735Y012578D01*
X034720Y012673D01*
X034691Y012765D01*
X034647Y012851D01*
X034590Y012929D01*
X034522Y012997D01*
X034444Y013054D01*
X034358Y013098D01*
X034266Y013127D01*
X034202Y013137D01*
X034202Y012314D01*
X034042Y012314D01*
X034042Y012154D01*
X033509Y012154D01*
X033509Y011891D01*
X033524Y011795D01*
X033554Y011704D01*
X033556Y011699D01*
X033272Y011699D01*
X033238Y011685D01*
X033238Y011810D01*
X033189Y011927D01*
X033099Y012017D01*
X033098Y012018D01*
X033098Y012190D01*
X032671Y012190D01*
X032671Y012286D01*
X033098Y012286D01*
X033098Y012518D01*
X033085Y012563D01*
X033062Y012605D01*
X033028Y012638D01*
X032987Y012662D01*
X032941Y012674D01*
X032670Y012674D01*
X032670Y012286D01*
X032574Y012286D01*
X032574Y012674D01*
X032367Y012674D01*
X032367Y012769D01*
X032077Y013059D01*
X031873Y013059D01*
X031873Y012564D01*
X031873Y012069D01*
X032077Y012069D01*
X032147Y012139D01*
X032147Y012018D01*
X032146Y012017D01*
X032056Y011927D01*
X032007Y011810D01*
X032007Y011796D01*
X031999Y011799D01*
X031746Y011799D01*
X031513Y011702D01*
X031334Y011524D01*
X031237Y011290D01*
X031237Y011038D01*
X031334Y010804D01*
X031513Y010626D01*
X031746Y010529D01*
X031999Y010529D01*
X032180Y010604D01*
X032277Y010604D01*
X032468Y010604D01*
X032099Y010389D02*
X031645Y010389D01*
X031702Y010547D02*
X029915Y010547D01*
X029757Y010389D02*
X030099Y010389D01*
X029908Y010230D02*
X029836Y010230D01*
X030645Y010389D02*
X031099Y010389D01*
X030908Y010230D02*
X030836Y010230D01*
X031433Y010706D02*
X030074Y010706D01*
X030093Y010864D02*
X031309Y010864D01*
X031244Y011023D02*
X030093Y011023D01*
X030093Y011181D02*
X031237Y011181D01*
X031258Y011340D02*
X029988Y011340D01*
X029830Y011499D02*
X031324Y011499D01*
X031467Y011657D02*
X029521Y011657D01*
X029665Y011597D02*
X029665Y011597D01*
X029026Y012133D02*
X031604Y012133D01*
X031667Y012069D02*
X031872Y012069D01*
X031872Y012564D01*
X031377Y012564D01*
X031377Y012359D01*
X031667Y012069D01*
X031872Y012133D02*
X031873Y012133D01*
X031872Y012291D02*
X031873Y012291D01*
X031872Y012450D02*
X031873Y012450D01*
X031872Y012564D02*
X031873Y012564D01*
X031872Y012564D01*
X031872Y012564D01*
X031377Y012564D01*
X031377Y012769D01*
X031667Y013059D01*
X031872Y013059D01*
X031872Y012564D01*
X031872Y012608D02*
X031873Y012608D01*
X031872Y012767D02*
X031873Y012767D01*
X031872Y012925D02*
X031873Y012925D01*
X032211Y012925D02*
X033652Y012925D01*
X033655Y012929D02*
X033598Y012851D01*
X033554Y012765D01*
X033524Y012673D01*
X033509Y012578D01*
X033509Y012314D01*
X034042Y012314D01*
X034042Y013137D01*
X033979Y013127D01*
X033887Y013098D01*
X033801Y013054D01*
X033723Y012997D01*
X033655Y012929D01*
X033555Y012767D02*
X032367Y012767D01*
X032574Y012608D02*
X032670Y012608D01*
X032670Y012450D02*
X032574Y012450D01*
X032574Y012291D02*
X032670Y012291D01*
X033098Y012291D02*
X034042Y012291D01*
X034042Y012154D02*
X034202Y012154D01*
X034202Y011758D01*
X034141Y011758D01*
X034141Y011203D01*
X034104Y011203D01*
X034104Y011758D01*
X034042Y011758D01*
X034042Y012154D01*
X034042Y012133D02*
X034202Y012133D01*
X034203Y012291D02*
X035147Y012291D01*
X035147Y012286D02*
X035574Y012286D01*
X035574Y012674D01*
X035303Y012674D01*
X035258Y012662D01*
X035217Y012638D01*
X035183Y012605D01*
X035159Y012563D01*
X035147Y012518D01*
X035147Y012286D01*
X035147Y012133D02*
X034735Y012133D01*
X034735Y011974D02*
X035103Y011974D01*
X035010Y011816D02*
X034724Y011816D01*
X034202Y011816D02*
X034042Y011816D01*
X034042Y011974D02*
X034202Y011974D01*
X034141Y011657D02*
X034104Y011657D01*
X034104Y011499D02*
X034141Y011499D01*
X034141Y011340D02*
X034104Y011340D01*
X034104Y011023D02*
X034141Y011023D01*
X034141Y010864D02*
X034104Y010864D01*
X034104Y010706D02*
X034141Y010706D01*
X034305Y010547D02*
X033940Y010547D01*
X033124Y010547D02*
X032043Y010547D01*
X031908Y010230D02*
X031836Y010230D01*
X031800Y008962D02*
X031944Y008962D01*
X032187Y008803D02*
X031558Y008803D01*
X031187Y008803D02*
X030558Y008803D01*
X030800Y008962D02*
X030944Y008962D01*
X030187Y008803D02*
X029558Y008803D01*
X029800Y008962D02*
X029944Y008962D01*
X029187Y008803D02*
X029007Y008803D01*
X028944Y008962D02*
X028922Y008962D01*
X028372Y008488D02*
X028372Y009614D01*
X027372Y009614D02*
X027372Y008488D01*
X026372Y006614D02*
X026372Y006364D01*
X020622Y007364D02*
X020122Y007364D01*
X017709Y005951D02*
X017622Y005951D01*
X016372Y006777D02*
X016372Y007990D01*
X015122Y007990D02*
X015122Y006777D01*
X014536Y005951D02*
X014122Y006364D01*
X014122Y007364D01*
X013622Y007864D01*
X012872Y007864D01*
X012622Y008114D01*
X012622Y008490D01*
X013257Y008328D02*
X013353Y008328D01*
X012319Y007852D02*
X012008Y007852D01*
X012072Y008011D02*
X012078Y008011D01*
X012382Y007694D02*
X005799Y007694D01*
X005998Y007535D02*
X012292Y007535D01*
X012292Y007376D02*
X006134Y007376D01*
X006023Y007515D02*
X006023Y007515D01*
X006023Y007515D01*
X006260Y007218D02*
X012292Y007218D01*
X012357Y007059D02*
X006372Y007059D01*
X006448Y006901D02*
X012037Y006901D01*
X011932Y006742D02*
X006524Y006742D01*
X006588Y006584D02*
X007014Y006584D01*
X006976Y006545D02*
X007066Y006635D01*
X007184Y006684D01*
X007388Y006684D01*
X007414Y006695D01*
X007573Y006695D01*
X007773Y006695D01*
X007773Y006695D01*
X007799Y006684D01*
X008088Y006684D01*
X008113Y006695D01*
X008273Y006695D01*
X008473Y006695D01*
X008473Y006695D01*
X008498Y006684D01*
X008788Y006684D01*
X008813Y006695D01*
X008972Y006695D01*
X009173Y006695D01*
X009173Y006695D01*
X009198Y006684D01*
X009588Y006684D01*
X009613Y006695D01*
X009772Y006695D01*
X009772Y006695D01*
X009798Y006684D01*
X010087Y006684D01*
X010113Y006695D01*
X010272Y006695D01*
X010297Y006684D01*
X010488Y006684D01*
X010513Y006695D01*
X010672Y006695D01*
X010698Y006684D01*
X010887Y006684D01*
X010913Y006695D01*
X011113Y006695D01*
X011272Y006695D01*
X011297Y006684D01*
X011436Y006684D01*
X011554Y006635D01*
X011644Y006545D01*
X011692Y006428D01*
X011692Y006274D01*
X011692Y006274D01*
X011692Y005715D01*
X011692Y005714D01*
X011692Y005550D01*
X011644Y005433D01*
X011554Y005343D01*
X011436Y005294D01*
X009972Y005294D01*
X009413Y005294D01*
X009173Y005294D01*
X009013Y005294D01*
X008813Y005294D01*
X008473Y005294D01*
X008314Y005294D01*
X008114Y005294D01*
X007184Y005294D01*
X007066Y005343D01*
X006976Y005433D01*
X006927Y005550D01*
X006927Y006428D01*
X006976Y006545D01*
X006927Y006425D02*
X006624Y006425D01*
X006660Y006267D02*
X006927Y006267D01*
X006927Y006108D02*
X006692Y006108D01*
X006692Y005950D02*
X006927Y005950D01*
X006927Y005791D02*
X006692Y005791D01*
X006692Y005928D02*
X006692Y005928D01*
X006692Y005632D02*
X006927Y005632D01*
X006959Y005474D02*
X006692Y005474D01*
X006692Y005315D02*
X007132Y005315D01*
X006692Y005157D02*
X012163Y005157D01*
X012063Y005315D02*
X011487Y005315D01*
X011661Y005474D02*
X012063Y005474D01*
X012063Y005662D02*
X012450Y005662D01*
X012450Y006089D01*
X012219Y006089D01*
X012173Y006077D01*
X012132Y006053D01*
X012098Y006020D01*
X012075Y005979D01*
X012063Y005933D01*
X012063Y005662D01*
X012063Y005791D02*
X011692Y005791D01*
X011692Y005632D02*
X012450Y005632D01*
X012450Y005474D02*
X012546Y005474D01*
X012546Y005315D02*
X012450Y005315D01*
X012450Y005157D02*
X012546Y005157D01*
X012546Y005791D02*
X012450Y005791D01*
X012450Y005950D02*
X012546Y005950D01*
X012737Y006108D02*
X011692Y006108D01*
X011692Y005950D02*
X012067Y005950D01*
X012098Y006267D02*
X011692Y006267D01*
X011692Y006425D02*
X011939Y006425D01*
X011932Y006584D02*
X011605Y006584D01*
X011292Y006194D02*
X011192Y006295D01*
X010992Y006295D01*
X010892Y006194D01*
X010892Y005794D01*
X010992Y005694D01*
X011192Y005694D01*
X011292Y005794D01*
X011292Y006194D01*
X010593Y006295D02*
X010593Y005694D01*
X010593Y005994D02*
X010192Y005994D01*
X010192Y005694D02*
X010192Y006295D01*
X009893Y006094D02*
X009693Y006295D01*
X009693Y005694D01*
X009893Y005694D02*
X009493Y005694D01*
X009193Y005794D02*
X009093Y005694D01*
X008893Y005694D01*
X008793Y005794D01*
X008793Y005894D01*
X008893Y005994D01*
X008993Y005994D01*
X008893Y005994D02*
X008793Y006094D01*
X008793Y006194D01*
X008893Y006295D01*
X009093Y006295D01*
X009193Y006194D01*
X008493Y006194D02*
X008493Y005794D01*
X008093Y006194D01*
X008093Y005794D01*
X008193Y005694D01*
X008393Y005694D01*
X008493Y005794D01*
X008493Y006194D02*
X008393Y006295D01*
X008193Y006295D01*
X008093Y006194D01*
X007794Y006194D02*
X007694Y006295D01*
X007493Y006295D01*
X007393Y006194D01*
X007393Y006094D01*
X007493Y005994D01*
X007694Y005994D01*
X007794Y006094D01*
X007794Y006194D01*
X007694Y005994D02*
X007794Y005894D01*
X007794Y005794D01*
X007694Y005694D01*
X007493Y005694D01*
X007393Y005794D01*
X007393Y005894D01*
X007493Y005994D01*
X010913Y006695D02*
X010913Y006695D01*
X012372Y006584D02*
X012373Y006584D01*
X012372Y006425D02*
X012373Y006425D01*
X012372Y006267D02*
X012373Y006267D01*
X012647Y006267D02*
X012892Y006267D01*
X014536Y005951D02*
X015122Y005951D01*
X010372Y009596D02*
X007100Y009596D01*
X007375Y009755D02*
X010378Y009755D01*
X010624Y009913D02*
X007557Y009913D01*
X007716Y010072D02*
X010606Y010072D01*
X010606Y010230D02*
X007843Y010230D01*
X007934Y010389D02*
X010606Y010389D01*
X010606Y010547D02*
X008026Y010547D01*
X008086Y010706D02*
X010634Y010706D01*
X010722Y010864D02*
X008128Y010864D01*
X008170Y011023D02*
X010566Y011023D01*
X010487Y011181D02*
X008192Y011181D01*
X008192Y011340D02*
X010487Y011340D01*
X011122Y012238D02*
X012996Y012238D01*
X013122Y012364D01*
X013982Y011974D02*
X014804Y011974D01*
X014962Y012133D02*
X014060Y012133D01*
X014102Y012291D02*
X015121Y012291D01*
X015279Y012450D02*
X014102Y012450D01*
X014055Y012608D02*
X015700Y012608D01*
X015700Y012767D02*
X013969Y012767D01*
X013796Y012925D02*
X015700Y012925D01*
X015700Y013084D02*
X013072Y013084D01*
X013072Y013243D02*
X015759Y013243D01*
X015856Y013401D02*
X013072Y013401D01*
X013072Y013560D02*
X016047Y013560D01*
X013072Y013718D02*
X038892Y013718D01*
X038892Y013560D02*
X026698Y013560D01*
X026889Y013401D02*
X038892Y013401D01*
X038892Y013243D02*
X029147Y013243D01*
X029024Y013365D02*
X029386Y013003D01*
X029386Y012492D01*
X029024Y012131D01*
X028513Y012131D01*
X028152Y012492D01*
X028152Y013003D01*
X028513Y013365D01*
X029024Y013365D01*
X029305Y013084D02*
X033860Y013084D01*
X034042Y013084D02*
X034202Y013084D01*
X034202Y012925D02*
X034042Y012925D01*
X034042Y012767D02*
X034202Y012767D01*
X034202Y012608D02*
X034042Y012608D01*
X034042Y012450D02*
X034202Y012450D01*
X034735Y012450D02*
X035147Y012450D01*
X035187Y012608D02*
X034731Y012608D01*
X034689Y012767D02*
X036075Y012767D01*
X036372Y012767D02*
X036373Y012767D01*
X036372Y012608D02*
X036373Y012608D01*
X036372Y012450D02*
X036373Y012450D01*
X036828Y012608D02*
X038892Y012608D01*
X038892Y012450D02*
X036867Y012450D01*
X036867Y012291D02*
X038892Y012291D01*
X038892Y012133D02*
X036841Y012133D01*
X036682Y011974D02*
X038892Y011974D01*
X038892Y011816D02*
X036819Y011816D01*
X036938Y011657D02*
X038892Y011657D01*
X038892Y011499D02*
X037004Y011499D01*
X037007Y011340D02*
X038892Y011340D01*
X038892Y011181D02*
X036984Y011181D01*
X036918Y011023D02*
X038892Y011023D01*
X038892Y010864D02*
X036771Y010864D01*
X036393Y010706D02*
X038892Y010706D01*
X038892Y010547D02*
X035120Y010547D01*
X033521Y011816D02*
X033235Y011816D01*
X033142Y011974D02*
X033509Y011974D01*
X033509Y012133D02*
X033098Y012133D01*
X033098Y012450D02*
X033509Y012450D01*
X033514Y012608D02*
X033058Y012608D01*
X032147Y012133D02*
X032141Y012133D01*
X032103Y011974D02*
X026981Y011974D01*
X027045Y012133D02*
X028512Y012133D01*
X028353Y012291D02*
X027045Y012291D01*
X027045Y012450D02*
X028195Y012450D01*
X028152Y012608D02*
X027045Y012608D01*
X027045Y012767D02*
X028152Y012767D01*
X028152Y012925D02*
X027045Y012925D01*
X027045Y013084D02*
X028233Y013084D01*
X028391Y013243D02*
X026986Y013243D01*
X025759Y013243D02*
X024830Y013243D01*
X024893Y013084D02*
X025700Y013084D01*
X025700Y012925D02*
X024905Y012925D01*
X024905Y012767D02*
X025700Y012767D01*
X025700Y012608D02*
X024410Y012608D01*
X024410Y012450D02*
X024335Y012450D01*
X024335Y012291D02*
X024410Y012291D01*
X024410Y012133D02*
X024335Y012133D01*
X024335Y011974D02*
X024410Y011974D01*
X024410Y011816D02*
X024335Y011816D01*
X024665Y011816D02*
X025867Y011816D01*
X025832Y011657D02*
X025413Y011657D01*
X025456Y011499D02*
X025789Y011499D01*
X025789Y011340D02*
X025456Y011340D01*
X025456Y011023D02*
X025789Y011023D01*
X025005Y011340D02*
X024846Y011340D01*
X024846Y011499D02*
X025005Y011499D01*
X025005Y011657D02*
X024846Y011657D01*
X024822Y011974D02*
X025764Y011974D01*
X025700Y012133D02*
X024890Y012133D01*
X024905Y012291D02*
X025700Y012291D01*
X025700Y012450D02*
X024905Y012450D01*
X023840Y012767D02*
X023045Y012767D01*
X023045Y012925D02*
X023840Y012925D01*
X023852Y013084D02*
X023045Y013084D01*
X022986Y013243D02*
X023915Y013243D01*
X024064Y013401D02*
X022889Y013401D01*
X026806Y011657D02*
X027274Y011657D01*
X027251Y011499D02*
X026850Y011499D01*
X026850Y011340D02*
X027251Y011340D01*
X027402Y011816D02*
X026878Y011816D01*
X028441Y011816D02*
X032010Y011816D01*
X031445Y012291D02*
X029184Y012291D01*
X029343Y012450D02*
X031377Y012450D01*
X031377Y012608D02*
X029386Y012608D01*
X029386Y012767D02*
X031377Y012767D01*
X031534Y012925D02*
X029386Y012925D01*
X034384Y013084D02*
X038892Y013084D01*
X038892Y012925D02*
X034593Y012925D01*
X035574Y012608D02*
X035670Y012608D01*
X035670Y012450D02*
X035574Y012450D01*
X035574Y012291D02*
X035670Y012291D01*
X036670Y012767D02*
X038892Y012767D01*
X038892Y013877D02*
X012988Y013877D01*
X012005Y013877D02*
X003352Y013877D01*
X003352Y014035D02*
X038892Y014035D01*
X038892Y014194D02*
X003352Y014194D01*
X003352Y014352D02*
X038892Y014352D01*
X017332Y011657D02*
X016913Y011657D01*
X016956Y011499D02*
X017289Y011499D01*
X017289Y011340D02*
X016956Y011340D01*
X016956Y011023D02*
X017289Y011023D01*
X017289Y010864D02*
X016956Y010864D01*
X016956Y010706D02*
X017289Y010706D01*
X017356Y010547D02*
X016889Y010547D01*
X016505Y010547D02*
X016346Y010547D01*
X016346Y010706D02*
X016505Y010706D01*
X016505Y010864D02*
X016346Y010864D01*
X015895Y011340D02*
X015527Y011340D01*
X015686Y011499D02*
X015895Y011499D01*
X012016Y012767D02*
X011615Y012767D01*
X011700Y012925D02*
X011796Y012925D01*
X011796Y013084D02*
X011700Y013084D01*
X011700Y013243D02*
X011796Y013243D01*
D11*
X023372Y009874D02*
X023372Y009354D01*
X024372Y009354D02*
X024372Y009874D01*
X025372Y009874D02*
X025372Y009354D01*
X026372Y009354D02*
X026372Y009874D01*
X027372Y009874D02*
X027372Y009354D01*
X028372Y009354D02*
X028372Y009874D01*
X029372Y009874D02*
X029372Y009354D01*
X030372Y009354D02*
X030372Y009874D01*
X031372Y009874D02*
X031372Y009354D01*
X032372Y009354D02*
X032372Y009874D01*
X032372Y006874D02*
X032372Y006354D01*
X031372Y006354D02*
X031372Y006874D01*
X030372Y006874D02*
X030372Y006354D01*
X029372Y006354D02*
X029372Y006874D01*
X028372Y006874D02*
X028372Y006354D01*
X027372Y006354D02*
X027372Y006874D01*
X026372Y006874D02*
X026372Y006354D01*
X025372Y006354D02*
X025372Y006874D01*
X024372Y006874D02*
X024372Y006354D01*
X023372Y006354D02*
X023372Y006874D01*
D12*
X011496Y009431D03*
X010748Y009431D03*
X011122Y010297D03*
D13*
X012792Y010364D02*
X013452Y010364D01*
X013452Y011364D02*
X012792Y011364D01*
X012792Y012364D02*
X013452Y012364D01*
D14*
X011122Y012238D03*
X011122Y011490D03*
X012622Y009238D03*
X012622Y008490D03*
X015122Y008738D03*
X016372Y008738D03*
X017622Y008738D03*
X017622Y007990D03*
X016372Y007990D03*
X015122Y007990D03*
X027372Y007740D03*
X028372Y007740D03*
X028372Y008488D03*
X027372Y008488D03*
D15*
X011496Y008364D03*
X010748Y008364D03*
D16*
X019622Y008638D03*
X020122Y008638D03*
X020622Y008638D03*
X021122Y008638D03*
X021122Y006590D03*
X020622Y006590D03*
X020122Y006590D03*
X019622Y006590D03*
D17*
X020622Y010063D03*
X022122Y010063D03*
X022122Y011165D03*
X020622Y011165D03*
D18*
X019422Y011114D03*
X017819Y011114D03*
X016426Y011114D03*
X014823Y011114D03*
X023323Y011114D03*
X024926Y011114D03*
X026319Y011114D03*
X027922Y011114D03*
D19*
X029438Y011156D02*
X029378Y011216D01*
X029574Y011216D01*
X029712Y011078D01*
X029712Y010882D01*
X029574Y010744D01*
X029378Y010744D01*
X029240Y010882D01*
X029240Y011078D01*
X029378Y011216D01*
X029415Y011127D01*
X029537Y011127D01*
X029623Y011041D01*
X029623Y010919D01*
X029537Y010833D01*
X029415Y010833D01*
X029329Y010919D01*
X029329Y011041D01*
X029415Y011127D01*
X029452Y011038D01*
X029500Y011038D01*
X029534Y011004D01*
X029534Y010956D01*
X029500Y010922D01*
X029452Y010922D01*
X029418Y010956D01*
X029418Y011004D01*
X029452Y011038D01*
X028731Y012924D02*
X028671Y012984D01*
X028867Y012984D01*
X029005Y012846D01*
X029005Y012650D01*
X028867Y012512D01*
X028671Y012512D01*
X028533Y012650D01*
X028533Y012846D01*
X028671Y012984D01*
X028708Y012895D01*
X028830Y012895D01*
X028916Y012809D01*
X028916Y012687D01*
X028830Y012601D01*
X028708Y012601D01*
X028622Y012687D01*
X028622Y012809D01*
X028708Y012895D01*
X028745Y012806D01*
X028793Y012806D01*
X028827Y012772D01*
X028827Y012724D01*
X028793Y012690D01*
X028745Y012690D01*
X028711Y012724D01*
X028711Y012772D01*
X028745Y012806D01*
D20*
X031872Y012564D03*
X036372Y012364D03*
D21*
X036372Y011364D03*
X031872Y011164D03*
D22*
X032622Y011490D03*
X032622Y012238D03*
X035622Y012238D03*
X035622Y011490D03*
X023372Y008488D03*
X021872Y008488D03*
X021872Y007740D03*
X023372Y007740D03*
D23*
X033532Y011084D03*
X034713Y011084D03*
D24*
X034122Y011184D03*
D25*
X034122Y011939D02*
X034122Y012529D01*
D26*
X026372Y012262D02*
X026372Y012967D01*
X024372Y012967D02*
X024372Y012262D01*
X022372Y012262D02*
X022372Y012967D01*
X020372Y012967D02*
X020372Y012262D01*
X018372Y012262D02*
X018372Y012967D01*
X016372Y012967D02*
X016372Y012262D01*
D27*
X012872Y007364D03*
X012372Y006614D03*
X013372Y006614D03*
D28*
X013246Y005614D03*
X012498Y005614D03*
X012496Y013364D03*
X011748Y013364D03*
D29*
X015122Y006777D03*
X016372Y006777D03*
X017622Y006777D03*
X017622Y005951D03*
X016372Y005951D03*
X015122Y005951D03*
D30*
X013372Y005614D02*
X013372Y006614D01*
X013372Y005614D02*
X013246Y005614D01*
X023372Y006614D02*
X023372Y007740D01*
X023323Y011114D02*
X023372Y011364D01*
X023247Y011364D01*
X022372Y012239D01*
X022372Y012614D01*
X020372Y012614D02*
X020372Y012239D01*
X019497Y011364D01*
X019372Y011364D01*
X019422Y011114D01*
X016372Y012114D02*
X016372Y012614D01*
X016372Y012114D02*
X015622Y012114D01*
X014872Y011364D01*
X013122Y011364D01*
X013122Y012364D02*
X012872Y012364D01*
X012496Y012740D01*
X012496Y013364D01*
X031872Y011164D02*
X031952Y011084D01*
X032372Y011084D01*
X032622Y011334D01*
X032622Y011490D01*
X032372Y011084D02*
X033532Y011084D01*
X034713Y011084D02*
X035372Y011084D01*
X035622Y011334D01*
X035622Y011490D01*
X035372Y011084D02*
X036093Y011084D01*
X036372Y011364D01*
D31*
X023448Y010989D02*
X023323Y011114D01*
X023448Y010989D02*
X022247Y010989D01*
X022122Y011114D01*
X022122Y011165D01*
X020622Y011165D02*
X020321Y010989D01*
X019422Y010989D01*
X019422Y011114D01*
X014872Y011114D02*
X014872Y011364D01*
X014872Y011114D02*
X014823Y011114D01*
D32*
X027922Y011114D02*
X029342Y011114D01*
X029476Y010980D01*
D33*
X029622Y008302D03*
X035247Y005114D03*
X038622Y008489D03*
X038622Y014114D03*
X022622Y006989D03*
X019935Y005239D03*
X013622Y007864D03*
X013872Y009364D03*
X006997Y005114D03*
X003622Y008489D03*
X003622Y014114D03*
D34*
X002872Y005864D02*
X002872Y004364D01*
X003872Y004364D01*
X002872Y013864D02*
X002872Y014864D01*
X003872Y014864D01*
X038372Y014864D02*
X039372Y014864D01*
X039372Y013864D01*
X039372Y005364D02*
X039372Y004364D01*
X038372Y004364D01*
M02*
