G75*
G70*
%OFA0B0*%
%FSLAX24Y24*%
%IPPOS*%
%LPD*%
%AMOC8*
5,1,8,0,0,1.08239X$1,22.5*
%
%ADD10C,0.0000*%
%ADD11C,0.0160*%
D10*
X002872Y004364D02*
X002872Y014864D01*
X039372Y014864D01*
X039372Y004364D01*
X002872Y004364D01*
X003742Y005864D02*
X003744Y005914D01*
X003750Y005964D01*
X003760Y006013D01*
X003774Y006061D01*
X003791Y006108D01*
X003812Y006153D01*
X003837Y006197D01*
X003865Y006238D01*
X003897Y006277D01*
X003931Y006314D01*
X003968Y006348D01*
X004008Y006378D01*
X004050Y006405D01*
X004094Y006429D01*
X004140Y006450D01*
X004187Y006466D01*
X004235Y006479D01*
X004285Y006488D01*
X004334Y006493D01*
X004385Y006494D01*
X004435Y006491D01*
X004484Y006484D01*
X004533Y006473D01*
X004581Y006458D01*
X004627Y006440D01*
X004672Y006418D01*
X004715Y006392D01*
X004756Y006363D01*
X004795Y006331D01*
X004831Y006296D01*
X004863Y006258D01*
X004893Y006218D01*
X004920Y006175D01*
X004943Y006131D01*
X004962Y006085D01*
X004978Y006037D01*
X004990Y005988D01*
X004998Y005939D01*
X005002Y005889D01*
X005002Y005839D01*
X004998Y005789D01*
X004990Y005740D01*
X004978Y005691D01*
X004962Y005643D01*
X004943Y005597D01*
X004920Y005553D01*
X004893Y005510D01*
X004863Y005470D01*
X004831Y005432D01*
X004795Y005397D01*
X004756Y005365D01*
X004715Y005336D01*
X004672Y005310D01*
X004627Y005288D01*
X004581Y005270D01*
X004533Y005255D01*
X004484Y005244D01*
X004435Y005237D01*
X004385Y005234D01*
X004334Y005235D01*
X004285Y005240D01*
X004235Y005249D01*
X004187Y005262D01*
X004140Y005278D01*
X004094Y005299D01*
X004050Y005323D01*
X004008Y005350D01*
X003968Y005380D01*
X003931Y005414D01*
X003897Y005451D01*
X003865Y005490D01*
X003837Y005531D01*
X003812Y005575D01*
X003791Y005620D01*
X003774Y005667D01*
X003760Y005715D01*
X003750Y005764D01*
X003744Y005814D01*
X003742Y005864D01*
X005572Y011364D02*
X005574Y011414D01*
X005580Y011464D01*
X005590Y011514D01*
X005603Y011562D01*
X005620Y011610D01*
X005641Y011656D01*
X005665Y011700D01*
X005693Y011742D01*
X005724Y011782D01*
X005758Y011819D01*
X005795Y011854D01*
X005834Y011885D01*
X005875Y011914D01*
X005919Y011939D01*
X005965Y011961D01*
X006012Y011979D01*
X006060Y011993D01*
X006109Y012004D01*
X006159Y012011D01*
X006209Y012014D01*
X006260Y012013D01*
X006310Y012008D01*
X006360Y011999D01*
X006408Y011987D01*
X006456Y011970D01*
X006502Y011950D01*
X006547Y011927D01*
X006590Y011900D01*
X006630Y011870D01*
X006668Y011837D01*
X006703Y011801D01*
X006736Y011762D01*
X006765Y011721D01*
X006791Y011678D01*
X006814Y011633D01*
X006833Y011586D01*
X006848Y011538D01*
X006860Y011489D01*
X006868Y011439D01*
X006872Y011389D01*
X006872Y011339D01*
X006868Y011289D01*
X006860Y011239D01*
X006848Y011190D01*
X006833Y011142D01*
X006814Y011095D01*
X006791Y011050D01*
X006765Y011007D01*
X006736Y010966D01*
X006703Y010927D01*
X006668Y010891D01*
X006630Y010858D01*
X006590Y010828D01*
X006547Y010801D01*
X006502Y010778D01*
X006456Y010758D01*
X006408Y010741D01*
X006360Y010729D01*
X006310Y010720D01*
X006260Y010715D01*
X006209Y010714D01*
X006159Y010717D01*
X006109Y010724D01*
X006060Y010735D01*
X006012Y010749D01*
X005965Y010767D01*
X005919Y010789D01*
X005875Y010814D01*
X005834Y010843D01*
X005795Y010874D01*
X005758Y010909D01*
X005724Y010946D01*
X005693Y010986D01*
X005665Y011028D01*
X005641Y011072D01*
X005620Y011118D01*
X005603Y011166D01*
X005590Y011214D01*
X005580Y011264D01*
X005574Y011314D01*
X005572Y011364D01*
X037242Y005864D02*
X037244Y005914D01*
X037250Y005964D01*
X037260Y006013D01*
X037274Y006061D01*
X037291Y006108D01*
X037312Y006153D01*
X037337Y006197D01*
X037365Y006238D01*
X037397Y006277D01*
X037431Y006314D01*
X037468Y006348D01*
X037508Y006378D01*
X037550Y006405D01*
X037594Y006429D01*
X037640Y006450D01*
X037687Y006466D01*
X037735Y006479D01*
X037785Y006488D01*
X037834Y006493D01*
X037885Y006494D01*
X037935Y006491D01*
X037984Y006484D01*
X038033Y006473D01*
X038081Y006458D01*
X038127Y006440D01*
X038172Y006418D01*
X038215Y006392D01*
X038256Y006363D01*
X038295Y006331D01*
X038331Y006296D01*
X038363Y006258D01*
X038393Y006218D01*
X038420Y006175D01*
X038443Y006131D01*
X038462Y006085D01*
X038478Y006037D01*
X038490Y005988D01*
X038498Y005939D01*
X038502Y005889D01*
X038502Y005839D01*
X038498Y005789D01*
X038490Y005740D01*
X038478Y005691D01*
X038462Y005643D01*
X038443Y005597D01*
X038420Y005553D01*
X038393Y005510D01*
X038363Y005470D01*
X038331Y005432D01*
X038295Y005397D01*
X038256Y005365D01*
X038215Y005336D01*
X038172Y005310D01*
X038127Y005288D01*
X038081Y005270D01*
X038033Y005255D01*
X037984Y005244D01*
X037935Y005237D01*
X037885Y005234D01*
X037834Y005235D01*
X037785Y005240D01*
X037735Y005249D01*
X037687Y005262D01*
X037640Y005278D01*
X037594Y005299D01*
X037550Y005323D01*
X037508Y005350D01*
X037468Y005380D01*
X037431Y005414D01*
X037397Y005451D01*
X037365Y005490D01*
X037337Y005531D01*
X037312Y005575D01*
X037291Y005620D01*
X037274Y005667D01*
X037260Y005715D01*
X037250Y005764D01*
X037244Y005814D01*
X037242Y005864D01*
D11*
X003253Y001444D02*
X002952Y001444D01*
X002952Y002045D01*
X003253Y002045D01*
X003353Y001944D01*
X003353Y001544D01*
X003253Y001444D01*
X003652Y001444D02*
X003852Y001444D01*
X003752Y001444D02*
X003752Y002045D01*
X003652Y002045D02*
X003852Y002045D01*
X004119Y002045D02*
X004319Y001844D01*
X004519Y002045D01*
X004519Y001444D01*
X004818Y001444D02*
X005219Y001444D01*
X005518Y001444D02*
X005518Y002045D01*
X005919Y001444D01*
X005919Y002045D01*
X006218Y001944D02*
X006218Y001844D01*
X006318Y001744D01*
X006518Y001744D01*
X006618Y001644D01*
X006618Y001544D01*
X006518Y001444D01*
X006318Y001444D01*
X006218Y001544D01*
X006218Y001944D02*
X006318Y002045D01*
X006518Y002045D01*
X006618Y001944D01*
X006918Y002045D02*
X007118Y002045D01*
X007018Y002045D02*
X007018Y001444D01*
X006918Y001444D02*
X007118Y001444D01*
X007384Y001544D02*
X007484Y001444D01*
X007684Y001444D01*
X007785Y001544D01*
X007785Y001944D01*
X007684Y002045D01*
X007484Y002045D01*
X007384Y001944D01*
X007384Y001544D01*
X008084Y001444D02*
X008084Y002045D01*
X008484Y001444D01*
X008484Y002045D01*
X005219Y002045D02*
X004818Y002045D01*
X004818Y001444D01*
X004818Y001744D02*
X005019Y001744D01*
X004119Y001444D02*
X004119Y002045D01*
M02*
