G75*
G70*
%OFA0B0*%
%FSLAX24Y24*%
%IPPOS*%
%LPD*%
%AMOC8*
5,1,8,0,0,1.08239X$1,22.5*
%
%ADD10C,0.0120*%
%ADD11C,0.0100*%
%ADD12C,0.0060*%
%ADD13C,0.0110*%
%ADD14C,0.0090*%
%ADD15C,0.0140*%
%ADD16C,0.0160*%
%ADD17C,0.0070*%
%ADD18C,0.0150*%
%ADD19C,0.0180*%
D10*
X022872Y006989D02*
X022872Y007739D01*
X022909Y007741D01*
X022945Y007746D01*
X022981Y007755D01*
X023016Y007768D01*
X023049Y007783D01*
X023080Y007802D01*
X023110Y007824D01*
X023137Y007849D01*
X023162Y007876D01*
X023184Y007906D01*
X023203Y007937D01*
X023218Y007970D01*
X023231Y008005D01*
X023240Y008041D01*
X023245Y008077D01*
X023247Y008114D01*
X023245Y008151D01*
X023240Y008187D01*
X023231Y008223D01*
X023218Y008258D01*
X023203Y008291D01*
X023184Y008322D01*
X023162Y008352D01*
X023137Y008379D01*
X023110Y008404D01*
X023080Y008426D01*
X023049Y008445D01*
X023016Y008460D01*
X022981Y008473D01*
X022945Y008482D01*
X022909Y008487D01*
X022872Y008489D01*
X022872Y009239D01*
X032872Y009239D02*
X032872Y006989D01*
D11*
X028749Y007789D02*
X028242Y007789D01*
X028496Y007789D02*
X028496Y008550D01*
X028242Y008296D01*
X027957Y008423D02*
X027831Y008550D01*
X027577Y008550D01*
X027450Y008423D01*
X027450Y007916D01*
X027577Y007789D01*
X027831Y007789D01*
X027957Y007916D01*
X027176Y007789D02*
X026922Y007789D01*
X027049Y007789D02*
X027049Y008550D01*
X026922Y008550D02*
X027176Y008550D01*
X027372Y010614D02*
X027372Y014364D01*
X029185Y012489D02*
X029622Y011427D01*
X029060Y011177D02*
X028622Y012302D01*
X030291Y011864D02*
X030293Y011943D01*
X030299Y012023D01*
X030309Y012102D01*
X030323Y012180D01*
X030341Y012257D01*
X030362Y012334D01*
X030388Y012409D01*
X030417Y012483D01*
X030450Y012555D01*
X030487Y012626D01*
X030527Y012694D01*
X030570Y012761D01*
X030617Y012825D01*
X030667Y012887D01*
X030720Y012946D01*
X030775Y013003D01*
X030834Y013056D01*
X030895Y013107D01*
X030959Y013155D01*
X031025Y013199D01*
X031093Y013240D01*
X031163Y013277D01*
X031235Y013311D01*
X031309Y013341D01*
X031383Y013368D01*
X031460Y013390D01*
X031537Y013409D01*
X031615Y013424D01*
X031694Y013435D01*
X031773Y013442D01*
X031852Y013445D01*
X031932Y013444D01*
X032011Y013439D01*
X032090Y013430D01*
X032168Y013417D01*
X032246Y013400D01*
X032323Y013379D01*
X032398Y013355D01*
X032472Y013327D01*
X032545Y013295D01*
X032616Y013259D01*
X032685Y013220D01*
X032752Y013177D01*
X032817Y013131D01*
X032880Y013082D01*
X032940Y013030D01*
X032997Y012975D01*
X033051Y012917D01*
X033103Y012856D01*
X033151Y012793D01*
X033196Y012728D01*
X033238Y012660D01*
X033276Y012591D01*
X033311Y012519D01*
X033342Y012446D01*
X033369Y012371D01*
X033393Y012296D01*
X033413Y012219D01*
X033429Y012141D01*
X033441Y012062D01*
X033449Y011983D01*
X033453Y011904D01*
X033453Y011824D01*
X033449Y011745D01*
X033441Y011666D01*
X033429Y011587D01*
X033413Y011509D01*
X033393Y011432D01*
X033369Y011357D01*
X033342Y011282D01*
X033311Y011209D01*
X033276Y011137D01*
X033238Y011068D01*
X033196Y011000D01*
X033151Y010935D01*
X033103Y010872D01*
X033051Y010811D01*
X032997Y010753D01*
X032940Y010698D01*
X032880Y010646D01*
X032817Y010597D01*
X032752Y010551D01*
X032685Y010508D01*
X032616Y010469D01*
X032545Y010433D01*
X032472Y010401D01*
X032398Y010373D01*
X032323Y010349D01*
X032246Y010328D01*
X032168Y010311D01*
X032090Y010298D01*
X032011Y010289D01*
X031932Y010284D01*
X031852Y010283D01*
X031773Y010286D01*
X031694Y010293D01*
X031615Y010304D01*
X031537Y010319D01*
X031460Y010338D01*
X031383Y010360D01*
X031309Y010387D01*
X031235Y010417D01*
X031163Y010451D01*
X031093Y010488D01*
X031025Y010529D01*
X030959Y010573D01*
X030895Y010621D01*
X030834Y010672D01*
X030775Y010725D01*
X030720Y010782D01*
X030667Y010841D01*
X030617Y010903D01*
X030570Y010967D01*
X030527Y011034D01*
X030487Y011102D01*
X030450Y011173D01*
X030417Y011245D01*
X030388Y011319D01*
X030362Y011394D01*
X030341Y011471D01*
X030323Y011548D01*
X030309Y011626D01*
X030299Y011705D01*
X030293Y011785D01*
X030291Y011864D01*
X027372Y010614D02*
X015372Y010614D01*
X015372Y014364D01*
X011122Y013364D02*
X007622Y013364D01*
X007622Y009364D01*
X011122Y009364D01*
X011122Y013364D01*
X007622Y013364D02*
X004872Y013364D01*
X004872Y009364D01*
X007622Y009364D01*
X011997Y006239D02*
X011967Y006294D01*
X011941Y006352D01*
X011919Y006410D01*
X011900Y006471D01*
X011886Y006532D01*
X011875Y006594D01*
X011867Y006656D01*
X011864Y006719D01*
X011865Y006782D01*
X011870Y006844D01*
X011878Y006907D01*
X011890Y006968D01*
X011907Y007029D01*
X011927Y007089D01*
X011950Y007147D01*
X011977Y007204D01*
X012008Y007258D01*
X012042Y007311D01*
X012080Y007362D01*
X012120Y007410D01*
X012163Y007456D01*
X012209Y007499D01*
X012258Y007538D01*
X012309Y007575D01*
X012362Y007609D01*
X012417Y007639D01*
X012474Y007665D01*
X012533Y007688D01*
X012593Y007708D01*
X012654Y007723D01*
X012715Y007735D01*
X012778Y007743D01*
X012841Y007747D01*
X012903Y007747D01*
X012966Y007743D01*
X013029Y007735D01*
X013090Y007723D01*
X013151Y007708D01*
X013211Y007688D01*
X013270Y007665D01*
X013327Y007639D01*
X013382Y007609D01*
X013435Y007575D01*
X013486Y007538D01*
X013535Y007499D01*
X013581Y007456D01*
X013624Y007410D01*
X013664Y007362D01*
X013702Y007311D01*
X013736Y007258D01*
X013767Y007204D01*
X013794Y007147D01*
X013817Y007089D01*
X013837Y007029D01*
X013854Y006968D01*
X013866Y006907D01*
X013874Y006844D01*
X013879Y006782D01*
X013880Y006719D01*
X013877Y006656D01*
X013869Y006594D01*
X013858Y006532D01*
X013844Y006471D01*
X013825Y006410D01*
X013803Y006352D01*
X013777Y006294D01*
X013747Y006239D01*
X011997Y006239D01*
X035020Y011864D02*
X035022Y011937D01*
X035028Y012010D01*
X035038Y012083D01*
X035052Y012155D01*
X035069Y012226D01*
X035091Y012296D01*
X035116Y012364D01*
X035145Y012432D01*
X035177Y012497D01*
X035214Y012561D01*
X035253Y012623D01*
X035296Y012682D01*
X035342Y012739D01*
X035390Y012794D01*
X035442Y012846D01*
X035497Y012894D01*
X035554Y012940D01*
X035613Y012983D01*
X035675Y013022D01*
X035739Y013059D01*
X035804Y013091D01*
X035872Y013120D01*
X035940Y013145D01*
X036010Y013167D01*
X036081Y013184D01*
X036153Y013198D01*
X036226Y013208D01*
X036299Y013214D01*
X036372Y013216D01*
X036445Y013214D01*
X036518Y013208D01*
X036591Y013198D01*
X036663Y013184D01*
X036734Y013167D01*
X036804Y013145D01*
X036872Y013120D01*
X036940Y013091D01*
X037005Y013059D01*
X037069Y013022D01*
X037131Y012983D01*
X037190Y012940D01*
X037247Y012894D01*
X037302Y012846D01*
X037354Y012794D01*
X037402Y012739D01*
X037448Y012682D01*
X037491Y012623D01*
X037530Y012561D01*
X037567Y012497D01*
X037599Y012432D01*
X037628Y012364D01*
X037653Y012296D01*
X037675Y012226D01*
X037692Y012155D01*
X037706Y012083D01*
X037716Y012010D01*
X037722Y011937D01*
X037724Y011864D01*
X037722Y011791D01*
X037716Y011718D01*
X037706Y011645D01*
X037692Y011573D01*
X037675Y011502D01*
X037653Y011432D01*
X037628Y011364D01*
X037599Y011296D01*
X037567Y011231D01*
X037530Y011167D01*
X037491Y011105D01*
X037448Y011046D01*
X037402Y010989D01*
X037354Y010934D01*
X037302Y010882D01*
X037247Y010834D01*
X037190Y010788D01*
X037131Y010745D01*
X037069Y010706D01*
X037005Y010669D01*
X036940Y010637D01*
X036872Y010608D01*
X036804Y010583D01*
X036734Y010561D01*
X036663Y010544D01*
X036591Y010530D01*
X036518Y010520D01*
X036445Y010514D01*
X036372Y010512D01*
X036299Y010514D01*
X036226Y010520D01*
X036153Y010530D01*
X036081Y010544D01*
X036010Y010561D01*
X035940Y010583D01*
X035872Y010608D01*
X035804Y010637D01*
X035739Y010669D01*
X035675Y010706D01*
X035613Y010745D01*
X035554Y010788D01*
X035497Y010834D01*
X035442Y010882D01*
X035390Y010934D01*
X035342Y010989D01*
X035296Y011046D01*
X035253Y011105D01*
X035214Y011167D01*
X035177Y011231D01*
X035145Y011296D01*
X035116Y011364D01*
X035091Y011432D01*
X035069Y011502D01*
X035052Y011573D01*
X035038Y011645D01*
X035028Y011718D01*
X035022Y011791D01*
X035020Y011864D01*
D12*
X036902Y011464D02*
X037329Y011464D01*
X037116Y011678D02*
X037116Y011251D01*
X032954Y011214D02*
X032527Y011214D01*
X032741Y011001D02*
X032741Y011428D01*
D13*
X026571Y013839D02*
X026177Y013839D01*
X026374Y014036D02*
X026374Y013642D01*
D14*
X022481Y013737D02*
X022403Y013659D01*
X022167Y013659D01*
X022167Y014129D01*
X022403Y014129D01*
X022481Y014051D01*
X022481Y013973D01*
X022403Y013894D01*
X022167Y013894D01*
X022403Y013894D02*
X022481Y013816D01*
X022481Y013737D01*
X020481Y013659D02*
X020481Y013973D01*
X020324Y014129D01*
X020167Y013973D01*
X020167Y013659D01*
X020167Y013894D02*
X020481Y013894D01*
X018872Y013894D02*
X018558Y013894D01*
X018356Y013737D02*
X018278Y013659D01*
X018121Y013659D01*
X018042Y013737D01*
X018042Y014051D01*
X018121Y014129D01*
X018278Y014129D01*
X018356Y014051D01*
X018356Y013737D01*
X016872Y013894D02*
X016558Y013894D01*
X016715Y014051D02*
X016715Y013737D01*
X016356Y013737D02*
X016356Y014051D01*
X016278Y014129D01*
X016121Y014129D01*
X016042Y014051D01*
X016042Y013737D01*
X016121Y013659D01*
X016278Y013659D01*
X016356Y013737D01*
X009939Y011593D02*
X009939Y011481D01*
X009492Y011034D01*
X009939Y011034D01*
X009239Y011034D02*
X009016Y011258D01*
X009239Y011146D02*
X009128Y011034D01*
X008904Y011034D01*
X008792Y011146D01*
X008792Y011593D01*
X008904Y011705D01*
X009128Y011705D01*
X009239Y011593D01*
X009239Y011146D01*
X009492Y011593D02*
X009604Y011705D01*
X009827Y011705D01*
X009939Y011593D01*
D15*
X024192Y013919D02*
X024673Y013919D01*
D16*
X003353Y001045D02*
X002952Y001045D01*
X003153Y001045D02*
X003153Y000444D01*
X003652Y000544D02*
X003752Y000444D01*
X003952Y000444D01*
X004053Y000544D01*
X004053Y000944D01*
X003952Y001045D01*
X003752Y001045D01*
X003652Y000944D01*
X003652Y000544D01*
X004352Y000444D02*
X004352Y001045D01*
X004652Y001045D01*
X004752Y000944D01*
X004752Y000744D01*
X004652Y000644D01*
X004352Y000644D01*
X005052Y000344D02*
X005452Y000344D01*
X005751Y000544D02*
X005852Y000444D01*
X006052Y000444D01*
X006152Y000544D01*
X006152Y000644D01*
X006052Y000744D01*
X005852Y000744D01*
X005751Y000844D01*
X005751Y000944D01*
X005852Y001045D01*
X006052Y001045D01*
X006152Y000944D01*
X006451Y001045D02*
X006651Y001045D01*
X006551Y001045D02*
X006551Y000444D01*
X006451Y000444D02*
X006651Y000444D01*
X006918Y000444D02*
X007318Y000444D01*
X007618Y000444D02*
X007618Y001045D01*
X007718Y000744D02*
X008018Y000444D01*
X008317Y000544D02*
X008417Y000444D01*
X008618Y000444D01*
X008718Y000544D01*
X008718Y000644D01*
X008618Y000744D01*
X008417Y000744D01*
X008317Y000844D01*
X008317Y000944D01*
X008417Y001045D01*
X008618Y001045D01*
X008718Y000944D01*
X009017Y000944D02*
X009017Y000544D01*
X009117Y000444D01*
X009317Y000444D01*
X009417Y000544D01*
X009717Y000444D02*
X009717Y001045D01*
X010017Y001045D01*
X010117Y000944D01*
X010117Y000744D01*
X010017Y000644D01*
X009717Y000644D01*
X009917Y000644D02*
X010117Y000444D01*
X010417Y000444D02*
X010817Y000444D01*
X011116Y000444D02*
X011517Y000444D01*
X011816Y000444D02*
X011816Y001045D01*
X012216Y000444D01*
X012216Y001045D01*
X011517Y001045D02*
X011116Y001045D01*
X011116Y000444D01*
X010417Y000444D02*
X010417Y001045D01*
X010817Y001045D01*
X010617Y000744D02*
X010417Y000744D01*
X011116Y000744D02*
X011316Y000744D01*
X009417Y000944D02*
X009317Y001045D01*
X009117Y001045D01*
X009017Y000944D01*
X008018Y001045D02*
X007618Y000644D01*
X006918Y000444D02*
X006918Y001045D01*
D17*
X012282Y007899D02*
X012446Y007899D01*
X012364Y007899D02*
X012364Y008389D01*
X012282Y008389D02*
X012446Y008389D01*
X012626Y008308D02*
X012708Y008389D01*
X012871Y008389D01*
X012953Y008308D01*
X013142Y008144D02*
X013469Y008144D01*
X013387Y007899D02*
X013387Y008389D01*
X013142Y008144D01*
X012953Y007981D02*
X012871Y007899D01*
X012708Y007899D01*
X012626Y007981D01*
X012626Y008308D01*
D18*
X016088Y005706D02*
X016088Y005615D01*
X016088Y005431D02*
X016088Y005064D01*
X015996Y005064D02*
X016180Y005064D01*
X016518Y005156D02*
X016609Y005064D01*
X016518Y005156D02*
X016518Y005523D01*
X016609Y005431D02*
X016426Y005431D01*
X016088Y005431D02*
X015996Y005431D01*
X015719Y005431D02*
X015443Y005431D01*
X015352Y005339D01*
X015352Y005156D01*
X015443Y005064D01*
X015719Y005064D01*
X015719Y004972D02*
X015719Y005431D01*
X015719Y004972D02*
X015627Y004881D01*
X015535Y004881D01*
X014707Y005064D02*
X015074Y005615D01*
X014430Y005615D02*
X014063Y005064D01*
X013832Y005064D02*
X013832Y005156D01*
X013740Y005156D01*
X013740Y005064D01*
X013832Y005064D01*
X013463Y005156D02*
X013371Y005248D01*
X013188Y005248D01*
X013096Y005339D01*
X013188Y005431D01*
X013463Y005431D01*
X013463Y005156D02*
X013371Y005064D01*
X013096Y005064D01*
X012818Y005156D02*
X012727Y005064D01*
X012451Y005064D01*
X012451Y004881D02*
X012451Y005431D01*
X012727Y005431D01*
X012818Y005339D01*
X012818Y005156D01*
X012205Y005064D02*
X012113Y005156D01*
X012113Y005523D01*
X012022Y005431D02*
X012205Y005431D01*
X011775Y005431D02*
X011592Y005431D01*
X011684Y005523D02*
X011684Y005156D01*
X011775Y005064D01*
X011314Y005064D02*
X011314Y005339D01*
X011223Y005431D01*
X011039Y005431D01*
X010947Y005339D01*
X010947Y005064D02*
X010947Y005615D01*
X013740Y005431D02*
X013740Y005339D01*
X013832Y005339D01*
X013832Y005431D01*
X013740Y005431D01*
X016856Y005339D02*
X016947Y005431D01*
X017131Y005431D01*
X017223Y005339D01*
X017223Y005064D01*
X017500Y005156D02*
X017592Y005064D01*
X017867Y005064D01*
X017867Y005431D01*
X018145Y005431D02*
X018420Y005431D01*
X018512Y005339D01*
X018512Y005156D01*
X018420Y005064D01*
X018145Y005064D01*
X018145Y005615D01*
X017500Y005431D02*
X017500Y005156D01*
X016856Y005064D02*
X016856Y005615D01*
X018789Y005156D02*
X018789Y005064D01*
X018881Y005064D01*
X018881Y005156D01*
X018789Y005156D01*
X019111Y005156D02*
X019203Y005064D01*
X019478Y005064D01*
X019756Y005156D02*
X019848Y005064D01*
X020031Y005064D01*
X020123Y005156D01*
X020123Y005339D01*
X020031Y005431D01*
X019848Y005431D01*
X019756Y005339D01*
X019756Y005156D01*
X019478Y005431D02*
X019203Y005431D01*
X019111Y005339D01*
X019111Y005156D01*
X020400Y005064D02*
X020400Y005431D01*
X020492Y005431D01*
X020584Y005339D01*
X020676Y005431D01*
X020767Y005339D01*
X020767Y005064D01*
X020584Y005064D02*
X020584Y005339D01*
X021045Y005064D02*
X021412Y005615D01*
X021690Y005339D02*
X021690Y005156D01*
X021781Y005064D01*
X021965Y005064D01*
X022056Y005156D01*
X022056Y005339D01*
X021965Y005431D01*
X021781Y005431D01*
X021690Y005339D01*
X022334Y005431D02*
X022334Y005064D01*
X022701Y005064D02*
X022701Y005339D01*
X022609Y005431D01*
X022334Y005431D01*
X022979Y005339D02*
X022979Y005156D01*
X023070Y005064D01*
X023346Y005064D01*
X023346Y005615D01*
X023346Y005431D02*
X023070Y005431D01*
X022979Y005339D01*
X023623Y005248D02*
X023807Y005431D01*
X023898Y005431D01*
X023623Y005431D02*
X023623Y005064D01*
X024160Y005156D02*
X024160Y005339D01*
X024252Y005431D01*
X024435Y005431D01*
X024527Y005339D01*
X024527Y005248D01*
X024160Y005248D01*
X024160Y005156D02*
X024252Y005064D01*
X024435Y005064D01*
X024805Y004881D02*
X024896Y004881D01*
X024988Y004972D01*
X024988Y005431D01*
X024988Y005615D02*
X024988Y005706D01*
X025234Y005615D02*
X025234Y005064D01*
X025601Y005064D02*
X025601Y005339D01*
X025510Y005431D01*
X025326Y005431D01*
X025234Y005339D01*
X025879Y005064D02*
X026246Y005615D01*
X026523Y005431D02*
X026615Y005431D01*
X026707Y005339D01*
X026799Y005431D01*
X026890Y005339D01*
X026890Y005064D01*
X026707Y005064D02*
X026707Y005339D01*
X026523Y005431D02*
X026523Y005064D01*
X027168Y005064D02*
X027443Y005064D01*
X027535Y005156D01*
X027443Y005248D01*
X027260Y005248D01*
X027168Y005339D01*
X027260Y005431D01*
X027535Y005431D01*
X027813Y005431D02*
X028088Y005431D01*
X028179Y005339D01*
X028179Y005156D01*
X028088Y005064D01*
X027813Y005064D01*
X027813Y004881D02*
X027813Y005431D01*
X028457Y005339D02*
X028824Y005339D01*
X028732Y005064D02*
X028732Y005615D01*
X028457Y005339D01*
X029102Y005156D02*
X029193Y005064D01*
X029377Y005064D01*
X029469Y005156D01*
X029469Y005248D01*
X029377Y005339D01*
X029285Y005339D01*
X029377Y005339D02*
X029469Y005431D01*
X029469Y005523D01*
X029377Y005615D01*
X029193Y005615D01*
X029102Y005523D01*
X029746Y005523D02*
X029838Y005615D01*
X030021Y005615D01*
X030113Y005523D01*
X029746Y005156D01*
X029838Y005064D01*
X030021Y005064D01*
X030113Y005156D01*
X030113Y005523D01*
X030391Y005339D02*
X030574Y005339D01*
X030482Y005523D02*
X030574Y005615D01*
X030482Y005523D02*
X030482Y005064D01*
X030820Y005156D02*
X030912Y005248D01*
X031187Y005248D01*
X031187Y005339D02*
X031187Y005064D01*
X030912Y005064D01*
X030820Y005156D01*
X030912Y005431D02*
X031096Y005431D01*
X031187Y005339D01*
X031465Y005431D02*
X031740Y005431D01*
X031832Y005339D01*
X031832Y005064D01*
X031465Y005064D02*
X031465Y005431D01*
X029746Y005523D02*
X029746Y005156D01*
D19*
X020500Y006318D02*
X020387Y006204D01*
X020160Y006204D01*
X020047Y006318D01*
X020047Y006431D01*
X020160Y006544D01*
X020387Y006544D01*
X020500Y006431D01*
X020500Y006318D01*
X020387Y006544D02*
X020500Y006658D01*
X020500Y006771D01*
X020387Y006885D01*
X020160Y006885D01*
X020047Y006771D01*
X020047Y006658D01*
X020160Y006544D01*
X019709Y006318D02*
X019595Y006204D01*
X019368Y006204D01*
X019255Y006318D01*
X019709Y006771D01*
X019709Y006318D01*
X019255Y006318D02*
X019255Y006771D01*
X019368Y006885D01*
X019595Y006885D01*
X019709Y006771D01*
X018917Y006771D02*
X018917Y006658D01*
X018803Y006544D01*
X018917Y006431D01*
X018917Y006318D01*
X018803Y006204D01*
X018576Y006204D01*
X018463Y006318D01*
X018690Y006544D02*
X018803Y006544D01*
X018917Y006771D02*
X018803Y006885D01*
X018576Y006885D01*
X018463Y006771D01*
X017898Y006885D02*
X017898Y006204D01*
X017671Y006204D02*
X018125Y006204D01*
X017333Y006204D02*
X017333Y006885D01*
X017671Y006658D02*
X017898Y006885D01*
X017333Y006544D02*
X016879Y006544D01*
X016541Y006318D02*
X016541Y006771D01*
X016428Y006885D01*
X016201Y006885D01*
X016087Y006771D01*
X016087Y006318D01*
X016201Y006204D01*
X016428Y006204D01*
X016541Y006318D01*
X016879Y006204D02*
X016879Y006885D01*
M02*
