%
M48
M72
T01C0.0236
T02C0.0320
T03C0.0394
T04C0.0440
T05C0.0470
T06C0.1260
T07C0.1300
%
T01
X19935Y5239
X29622Y8302
X38622Y14114
X38622Y8489
X35247Y5114
X22622Y6989
X13622Y7864
X13872Y9364
X3622Y14114
X3622Y8489
X6997Y5114
T02
X31372Y6614
X30372Y6614
X29372Y6614
X28372Y6614
X27372Y6614
X26372Y6614
X25372Y6614
X24372Y6614
X23372Y6614
X23372Y9614
X24372Y9614
X25372Y9614
X26372Y9614
X27372Y9614
X28372Y9614
X29372Y9614
X30372Y9614
X31372Y9614
X32372Y9614
X31872Y11164
X12872Y7364
X12372Y6614
X13372Y6614
X32372Y6614
X31872Y12564
X36372Y12364
X36372Y11364
T03
X29476Y10980
X28769Y12748
T04
X13122Y11364
X13122Y12364
X13122Y10364
T05
X26372Y12614
X16372Y12614
X18372Y12614
X20372Y12614
X22372Y12614
X24372Y12614
T06
X37872Y5864
X4372Y5864
T07
X6222Y11364
M30
