G75*
G70*
%OFA0B0*%
%FSLAX24Y24*%
%IPPOS*%
%LPD*%
%AMOC8*
5,1,8,0,0,1.08239X$1,22.5*
%
%ADD10C,0.1340*%
%ADD11C,0.0160*%
%ADD12C,0.0100*%
%ADD13C,0.0600*%
%ADD14C,0.0740*%
%ADD15C,0.1380*%
%ADD16C,0.0135*%
%ADD17OC8,0.0710*%
%ADD18C,0.0710*%
%ADD19C,0.0785*%
%ADD20OC8,0.0600*%
D10*
X004372Y005864D03*
X037872Y005864D03*
D11*
X003153Y003045D02*
X003153Y002444D01*
X003652Y002544D02*
X003752Y002444D01*
X003952Y002444D01*
X004053Y002544D01*
X004053Y002944D01*
X003952Y003045D01*
X003752Y003045D01*
X003652Y002944D01*
X003652Y002544D01*
X004352Y002444D02*
X004352Y003045D01*
X004652Y003045D01*
X004752Y002944D01*
X004752Y002744D01*
X004652Y002644D01*
X004352Y002644D01*
X005052Y002344D02*
X005452Y002344D01*
X005751Y002544D02*
X005852Y002444D01*
X006052Y002444D01*
X006152Y002544D01*
X006152Y002644D01*
X006052Y002744D01*
X005852Y002744D01*
X005751Y002844D01*
X005751Y002944D01*
X005852Y003045D01*
X006052Y003045D01*
X006152Y002944D01*
X006451Y002944D02*
X006551Y003045D01*
X006751Y003045D01*
X006852Y002944D01*
X006852Y002544D01*
X006751Y002444D01*
X006551Y002444D01*
X006451Y002544D01*
X006451Y002944D01*
X007151Y003045D02*
X007151Y002444D01*
X007551Y002444D01*
X007851Y002444D02*
X008151Y002444D01*
X008251Y002544D01*
X008251Y002944D01*
X008151Y003045D01*
X007851Y003045D01*
X007851Y002444D01*
X008551Y002444D02*
X008951Y002444D01*
X009250Y002444D02*
X009250Y003045D01*
X009551Y003045D01*
X009651Y002944D01*
X009651Y002744D01*
X009551Y002644D01*
X009250Y002644D01*
X009450Y002644D02*
X009651Y002444D01*
X009950Y002344D02*
X010350Y002344D01*
X010650Y002544D02*
X010750Y002444D01*
X010950Y002444D01*
X011050Y002544D01*
X011050Y002644D01*
X010950Y002744D01*
X010750Y002744D01*
X010650Y002844D01*
X010650Y002944D01*
X010750Y003045D01*
X010950Y003045D01*
X011050Y002944D01*
X011350Y003045D02*
X011750Y003045D01*
X011550Y003045D02*
X011550Y002444D01*
X012049Y002544D02*
X012149Y002444D01*
X012350Y002444D01*
X012450Y002544D01*
X012450Y002944D01*
X012350Y003045D01*
X012149Y003045D01*
X012049Y002944D01*
X012049Y002544D01*
X012749Y002444D02*
X012749Y003045D01*
X013049Y003045D01*
X013149Y002944D01*
X013149Y002744D01*
X013049Y002644D01*
X012749Y002644D01*
X008951Y003045D02*
X008551Y003045D01*
X008551Y002444D01*
X008551Y002744D02*
X008751Y002744D01*
X003353Y003045D02*
X002952Y003045D01*
D12*
X002872Y004364D02*
X002872Y005864D01*
X002872Y004364D02*
X003872Y004364D01*
X002872Y013864D02*
X002872Y014864D01*
X003872Y014864D01*
X038372Y014864D02*
X039372Y014864D01*
X039372Y013864D01*
X039372Y005364D02*
X039372Y004364D01*
X038372Y004364D01*
D13*
X032372Y006354D02*
X032372Y006874D01*
X031372Y006874D02*
X031372Y006354D01*
X030372Y006354D02*
X030372Y006874D01*
X029372Y006874D02*
X029372Y006354D01*
X028372Y006354D02*
X028372Y006874D01*
X027372Y006874D02*
X027372Y006354D01*
X026372Y006354D02*
X026372Y006874D01*
X025372Y006874D02*
X025372Y006354D01*
X024372Y006354D02*
X024372Y006874D01*
X023372Y006874D02*
X023372Y006354D01*
X023372Y009354D02*
X023372Y009874D01*
X024372Y009874D02*
X024372Y009354D01*
X025372Y009354D02*
X025372Y009874D01*
X026372Y009874D02*
X026372Y009354D01*
X027372Y009354D02*
X027372Y009874D01*
X028372Y009874D02*
X028372Y009354D01*
X029372Y009354D02*
X029372Y009874D01*
X030372Y009874D02*
X030372Y009354D01*
X031372Y009354D02*
X031372Y009874D01*
X032372Y009874D02*
X032372Y009354D01*
D14*
X013452Y010364D02*
X012792Y010364D01*
X012792Y011364D02*
X013452Y011364D01*
X013452Y012364D02*
X012792Y012364D01*
D15*
X006222Y011364D03*
D16*
X028726Y012948D02*
X028658Y013016D01*
X028880Y013016D01*
X029037Y012859D01*
X029037Y012637D01*
X028880Y012480D01*
X028658Y012480D01*
X028501Y012637D01*
X028501Y012859D01*
X028658Y013016D01*
X028699Y012915D01*
X028839Y012915D01*
X028936Y012818D01*
X028936Y012678D01*
X028839Y012581D01*
X028699Y012581D01*
X028602Y012678D01*
X028602Y012818D01*
X028699Y012915D01*
X028741Y012814D01*
X028797Y012814D01*
X028835Y012776D01*
X028835Y012720D01*
X028797Y012682D01*
X028741Y012682D01*
X028703Y012720D01*
X028703Y012776D01*
X028741Y012814D01*
X029433Y011180D02*
X029365Y011248D01*
X029587Y011248D01*
X029744Y011091D01*
X029744Y010869D01*
X029587Y010712D01*
X029365Y010712D01*
X029208Y010869D01*
X029208Y011091D01*
X029365Y011248D01*
X029406Y011147D01*
X029546Y011147D01*
X029643Y011050D01*
X029643Y010910D01*
X029546Y010813D01*
X029406Y010813D01*
X029309Y010910D01*
X029309Y011050D01*
X029406Y011147D01*
X029448Y011046D01*
X029504Y011046D01*
X029542Y011008D01*
X029542Y010952D01*
X029504Y010914D01*
X029448Y010914D01*
X029410Y010952D01*
X029410Y011008D01*
X029448Y011046D01*
D17*
X031872Y012564D03*
X036372Y012364D03*
D18*
X036372Y011364D03*
X031872Y011164D03*
D19*
X026372Y012262D02*
X026372Y012967D01*
X024372Y012967D02*
X024372Y012262D01*
X022372Y012262D02*
X022372Y012967D01*
X020372Y012967D02*
X020372Y012262D01*
X018372Y012262D02*
X018372Y012967D01*
X016372Y012967D02*
X016372Y012262D01*
D20*
X012872Y007364D03*
X012372Y006614D03*
X013372Y006614D03*
M02*
