G75*
G70*
%OFA0B0*%
%FSLAX24Y24*%
%IPPOS*%
%LPD*%
%AMOC8*
5,1,8,0,0,1.08239X$1,22.5*
%
%ADD10C,0.0160*%
%ADD11C,0.0520*%
%ADD12C,0.0660*%
%ADD13C,0.0119*%
%ADD14OC8,0.0630*%
%ADD15C,0.0630*%
%ADD16C,0.0705*%
%ADD17OC8,0.0520*%
%ADD18C,0.0500*%
%ADD19OC8,0.0396*%
%ADD20C,0.0320*%
%ADD21C,0.0100*%
D10*
X003153Y003444D02*
X003153Y004045D01*
X003353Y004045D02*
X002952Y004045D01*
X003652Y003944D02*
X003652Y003544D01*
X003752Y003444D01*
X003952Y003444D01*
X004053Y003544D01*
X004053Y003944D01*
X003952Y004045D01*
X003752Y004045D01*
X003652Y003944D01*
X004352Y004045D02*
X004652Y004045D01*
X004752Y003944D01*
X004752Y003744D01*
X004652Y003644D01*
X004352Y003644D01*
X004352Y003444D02*
X004352Y004045D01*
X006692Y004844D02*
X006692Y005928D01*
X006692Y006125D01*
X006692Y006125D01*
X006576Y006635D01*
X006576Y006635D01*
X006349Y007106D01*
X006349Y007106D01*
X006023Y007515D01*
X005615Y007841D01*
X005614Y007841D01*
X005144Y008068D01*
X005143Y008068D01*
X004634Y008184D01*
X004634Y008184D01*
X004436Y008184D01*
X004385Y008184D01*
X004372Y008184D01*
X004309Y008184D01*
X003352Y008184D01*
X003352Y014384D01*
X038892Y014384D01*
X038892Y008184D01*
X037809Y008184D01*
X037809Y008184D01*
X037611Y008184D01*
X037101Y008068D01*
X036630Y007841D01*
X036222Y007515D01*
X036222Y007515D01*
X035896Y007106D01*
X035669Y006635D01*
X035552Y006125D01*
X035552Y005928D01*
X035552Y005867D01*
X035552Y005864D01*
X035552Y005800D01*
X035552Y004844D01*
X006692Y004844D01*
X006692Y004998D02*
X035552Y004998D01*
X035552Y005157D02*
X006692Y005157D01*
X006692Y005315D02*
X035552Y005315D01*
X035552Y005474D02*
X006692Y005474D01*
X006692Y005632D02*
X035552Y005632D01*
X035552Y005791D02*
X032529Y005791D01*
X032488Y005774D02*
X032701Y005862D01*
X032864Y006026D01*
X032952Y006239D01*
X032952Y006989D01*
X032867Y007196D01*
X032894Y007207D01*
X033029Y007342D01*
X036416Y010729D01*
X036499Y010729D01*
X036732Y010826D01*
X036911Y011004D01*
X037007Y011238D01*
X037007Y011490D01*
X036911Y011724D01*
X036732Y011902D01*
X036646Y011938D01*
X036867Y012159D01*
X036867Y012364D01*
X036373Y012364D01*
X036373Y012364D01*
X036867Y012364D01*
X036867Y012569D01*
X036577Y012859D01*
X036373Y012859D01*
X036373Y012364D01*
X036372Y012364D01*
X035877Y012364D01*
X035877Y012159D01*
X036099Y011938D01*
X036013Y011902D01*
X035834Y011724D01*
X035737Y011490D01*
X035737Y011408D01*
X032424Y008094D01*
X029168Y008094D01*
X029711Y008637D01*
X029772Y008784D01*
X029772Y008934D01*
X029864Y009026D01*
X029872Y009046D01*
X029881Y009026D01*
X030044Y008862D01*
X030257Y008774D01*
X030488Y008774D01*
X030701Y008862D01*
X030864Y009026D01*
X030872Y009046D01*
X030881Y009026D01*
X031044Y008862D01*
X031257Y008774D01*
X031488Y008774D01*
X031701Y008862D01*
X031864Y009026D01*
X031872Y009046D01*
X031881Y009026D01*
X032044Y008862D01*
X032257Y008774D01*
X032488Y008774D01*
X032701Y008862D01*
X032864Y009026D01*
X032952Y009239D01*
X032952Y009989D01*
X032864Y010203D01*
X032701Y010366D01*
X032488Y010454D01*
X032257Y010454D01*
X032044Y010366D01*
X031881Y010203D01*
X031872Y010182D01*
X031864Y010203D01*
X031701Y010366D01*
X031594Y010410D01*
X031802Y010410D01*
X032011Y010497D01*
X032075Y010561D01*
X032232Y010626D01*
X032411Y010804D01*
X032507Y011038D01*
X032507Y011290D01*
X032411Y011524D01*
X032232Y011702D01*
X032075Y011767D01*
X031773Y012069D01*
X031872Y012069D01*
X031872Y012564D01*
X031377Y012564D01*
X031377Y012396D01*
X031286Y012434D01*
X029327Y012434D01*
X029386Y012492D01*
X029386Y013003D01*
X029024Y013365D01*
X028513Y013365D01*
X028467Y013318D01*
X026955Y013318D01*
X026943Y013348D01*
X026753Y013537D01*
X026506Y013639D01*
X026239Y013639D01*
X025991Y013537D01*
X025802Y013348D01*
X025700Y013100D01*
X025700Y012128D01*
X025802Y011881D01*
X025991Y011691D01*
X026239Y011589D01*
X026506Y011589D01*
X026753Y011691D01*
X026943Y011881D01*
X027045Y012128D01*
X027045Y012178D01*
X028467Y012178D01*
X028513Y012131D01*
X028583Y012131D01*
X027761Y011309D01*
X024234Y011309D01*
X023695Y011847D01*
X023486Y011934D01*
X023259Y011934D01*
X022965Y011934D01*
X023045Y012128D01*
X023045Y013100D01*
X022943Y013348D01*
X022753Y013537D01*
X022506Y013639D01*
X022239Y013639D01*
X021991Y013537D01*
X021802Y013348D01*
X021700Y013100D01*
X021700Y012128D01*
X021780Y011934D01*
X020965Y011934D01*
X021045Y012128D01*
X021045Y013100D01*
X020943Y013348D01*
X020753Y013537D01*
X020506Y013639D01*
X020239Y013639D01*
X019991Y013537D01*
X019802Y013348D01*
X019700Y013100D01*
X019700Y012128D01*
X019780Y011934D01*
X018793Y011934D01*
X018828Y011982D01*
X018866Y012057D01*
X018892Y012137D01*
X018905Y012220D01*
X018905Y012577D01*
X018410Y012577D01*
X018410Y012652D01*
X018335Y012652D01*
X018335Y013499D01*
X018331Y013499D01*
X018248Y013486D01*
X018168Y013460D01*
X018093Y013422D01*
X018026Y013373D01*
X017966Y013314D01*
X017917Y013246D01*
X017879Y013171D01*
X017853Y013091D01*
X017840Y013009D01*
X017840Y012652D01*
X018335Y012652D01*
X018335Y012577D01*
X017840Y012577D01*
X017840Y012220D01*
X017853Y012137D01*
X017879Y012057D01*
X017917Y011982D01*
X017952Y011934D01*
X016965Y011934D01*
X017045Y012128D01*
X017045Y013100D01*
X016943Y013348D01*
X016753Y013537D01*
X016506Y013639D01*
X016239Y013639D01*
X015991Y013537D01*
X015802Y013348D01*
X015700Y013100D01*
X015700Y012343D01*
X015195Y012847D01*
X014986Y012934D01*
X014759Y012934D01*
X013775Y012934D01*
X013582Y013014D01*
X012663Y013014D01*
X012424Y012915D01*
X012241Y012732D01*
X012142Y012493D01*
X012142Y012235D01*
X012241Y011996D01*
X012373Y011864D01*
X012241Y011732D01*
X012142Y011493D01*
X012142Y011235D01*
X012241Y010996D01*
X012373Y010864D01*
X012241Y010732D01*
X012142Y010493D01*
X012142Y010235D01*
X012241Y009996D01*
X012424Y009813D01*
X012663Y009714D01*
X013582Y009714D01*
X013821Y009813D01*
X014003Y009996D01*
X014102Y010235D01*
X014102Y010493D01*
X014003Y010732D01*
X013872Y010864D01*
X015589Y010864D01*
X015550Y010881D02*
X015759Y010794D01*
X023136Y010794D01*
X023514Y010416D01*
X023552Y010378D01*
X023552Y010276D01*
X023541Y010282D01*
X023475Y010303D01*
X023407Y010314D01*
X023373Y010314D01*
X023373Y009614D01*
X023373Y008914D01*
X023407Y008914D01*
X023475Y008925D01*
X023541Y008946D01*
X023552Y008952D01*
X023552Y008889D01*
X013452Y008889D01*
X013293Y008889D01*
X013146Y008828D01*
X012646Y008328D01*
X012533Y008216D01*
X012472Y008069D01*
X012472Y007784D01*
X012292Y007604D01*
X012292Y007124D01*
X012362Y007054D01*
X012190Y007054D01*
X011932Y006796D01*
X011932Y006614D01*
X011932Y006432D01*
X012190Y006174D01*
X012372Y006174D01*
X012372Y006614D01*
X011932Y006614D01*
X012372Y006614D01*
X012372Y006614D01*
X012373Y006614D01*
X012373Y006174D01*
X012555Y006174D01*
X012792Y006412D01*
X012792Y006374D01*
X013132Y006034D01*
X013613Y006034D01*
X013952Y006374D01*
X013952Y006515D01*
X014571Y007134D01*
X022852Y007134D01*
X022792Y006989D01*
X022792Y006239D01*
X022881Y006026D01*
X023044Y005862D01*
X023257Y005774D01*
X023488Y005774D01*
X023701Y005862D01*
X023864Y006026D01*
X023872Y006046D01*
X023881Y006026D01*
X024044Y005862D01*
X024257Y005774D01*
X024488Y005774D01*
X024701Y005862D01*
X024864Y006026D01*
X024872Y006046D01*
X024881Y006026D01*
X025044Y005862D01*
X025257Y005774D01*
X025488Y005774D01*
X025701Y005862D01*
X025864Y006026D01*
X025872Y006046D01*
X025881Y006026D01*
X026044Y005862D01*
X026257Y005774D01*
X026488Y005774D01*
X026701Y005862D01*
X026864Y006026D01*
X026872Y006046D01*
X026881Y006026D01*
X027044Y005862D01*
X027257Y005774D01*
X027488Y005774D01*
X027701Y005862D01*
X027864Y006026D01*
X027872Y006046D01*
X027881Y006026D01*
X028044Y005862D01*
X028257Y005774D01*
X028488Y005774D01*
X028701Y005862D01*
X028864Y006026D01*
X028872Y006046D01*
X028881Y006026D01*
X029044Y005862D01*
X029257Y005774D01*
X029488Y005774D01*
X029701Y005862D01*
X029864Y006026D01*
X029872Y006046D01*
X029881Y006026D01*
X030044Y005862D01*
X030257Y005774D01*
X030488Y005774D01*
X030701Y005862D01*
X030864Y006026D01*
X030872Y006046D01*
X030881Y006026D01*
X031044Y005862D01*
X031257Y005774D01*
X031488Y005774D01*
X031701Y005862D01*
X031864Y006026D01*
X031872Y006046D01*
X031881Y006026D01*
X032044Y005862D01*
X032257Y005774D01*
X032488Y005774D01*
X032216Y005791D02*
X031529Y005791D01*
X031788Y005950D02*
X031957Y005950D01*
X031216Y005791D02*
X030529Y005791D01*
X030788Y005950D02*
X030957Y005950D01*
X030216Y005791D02*
X029529Y005791D01*
X029788Y005950D02*
X029957Y005950D01*
X029216Y005791D02*
X028529Y005791D01*
X028788Y005950D02*
X028957Y005950D01*
X028216Y005791D02*
X027529Y005791D01*
X027788Y005950D02*
X027957Y005950D01*
X027216Y005791D02*
X026529Y005791D01*
X026788Y005950D02*
X026957Y005950D01*
X026216Y005791D02*
X025529Y005791D01*
X025788Y005950D02*
X025957Y005950D01*
X025216Y005791D02*
X024529Y005791D01*
X024788Y005950D02*
X024957Y005950D01*
X024216Y005791D02*
X023529Y005791D01*
X023788Y005950D02*
X023957Y005950D01*
X023216Y005791D02*
X006692Y005791D01*
X006692Y005928D02*
X006692Y005928D01*
X006692Y005950D02*
X022957Y005950D01*
X022847Y006108D02*
X013687Y006108D01*
X013845Y006267D02*
X022792Y006267D01*
X022792Y006425D02*
X013952Y006425D01*
X014021Y006584D02*
X022792Y006584D01*
X022792Y006742D02*
X014179Y006742D01*
X014338Y006901D02*
X022792Y006901D01*
X022821Y007059D02*
X014496Y007059D01*
X012872Y007364D02*
X012872Y007989D01*
X013372Y008489D01*
X027997Y008489D01*
X028372Y008864D01*
X028372Y009614D01*
X029372Y009614D02*
X029372Y008864D01*
X028622Y008114D01*
X013872Y008114D01*
X013622Y007864D01*
X012804Y008486D02*
X003352Y008486D01*
X003352Y008328D02*
X012645Y008328D01*
X012514Y008169D02*
X004699Y008169D01*
X004436Y008184D02*
X004436Y008184D01*
X005262Y008011D02*
X012472Y008011D01*
X012472Y007852D02*
X005591Y007852D01*
X005799Y007694D02*
X012382Y007694D01*
X012292Y007535D02*
X005998Y007535D01*
X006023Y007515D02*
X006023Y007515D01*
X006023Y007515D01*
X006134Y007376D02*
X012292Y007376D01*
X012292Y007218D02*
X006260Y007218D01*
X006372Y007059D02*
X012357Y007059D01*
X012037Y006901D02*
X006448Y006901D01*
X006524Y006742D02*
X011932Y006742D01*
X011932Y006584D02*
X006588Y006584D01*
X006624Y006425D02*
X011939Y006425D01*
X012098Y006267D02*
X006660Y006267D01*
X006692Y006108D02*
X013058Y006108D01*
X012900Y006267D02*
X012647Y006267D01*
X012373Y006267D02*
X012372Y006267D01*
X012372Y006425D02*
X012373Y006425D01*
X012372Y006584D02*
X012373Y006584D01*
X012962Y008645D02*
X003352Y008645D01*
X003352Y008803D02*
X013121Y008803D01*
X012565Y009755D02*
X003352Y009755D01*
X003352Y009913D02*
X012324Y009913D01*
X012210Y010072D02*
X003352Y010072D01*
X003352Y010230D02*
X012144Y010230D01*
X012142Y010389D02*
X006793Y010389D01*
X006916Y010460D02*
X007127Y010670D01*
X007275Y010928D01*
X007352Y011215D01*
X007352Y011513D01*
X007275Y011800D01*
X007127Y012058D01*
X006916Y012268D01*
X006659Y012417D01*
X006371Y012494D01*
X006074Y012494D01*
X005786Y012417D01*
X005529Y012268D01*
X005318Y012058D01*
X005169Y011800D01*
X005092Y011513D01*
X005092Y011215D01*
X005169Y010928D01*
X005318Y010670D01*
X005529Y010460D01*
X005786Y010311D01*
X006074Y010234D01*
X006371Y010234D01*
X006659Y010311D01*
X006916Y010460D01*
X007004Y010547D02*
X012165Y010547D01*
X012230Y010706D02*
X007147Y010706D01*
X007239Y010864D02*
X012373Y010864D01*
X012230Y011023D02*
X007301Y011023D01*
X007343Y011181D02*
X012164Y011181D01*
X012142Y011340D02*
X007352Y011340D01*
X007352Y011499D02*
X012145Y011499D01*
X012210Y011657D02*
X007314Y011657D01*
X007267Y011816D02*
X012325Y011816D01*
X012263Y011974D02*
X007175Y011974D01*
X007052Y012133D02*
X012185Y012133D01*
X012142Y012291D02*
X006877Y012291D01*
X006536Y012450D02*
X012142Y012450D01*
X012190Y012608D02*
X003352Y012608D01*
X003352Y012450D02*
X005909Y012450D01*
X005568Y012291D02*
X003352Y012291D01*
X003352Y012133D02*
X005393Y012133D01*
X005270Y011974D02*
X003352Y011974D01*
X003352Y011816D02*
X005178Y011816D01*
X005131Y011657D02*
X003352Y011657D01*
X003352Y011499D02*
X005092Y011499D01*
X005092Y011340D02*
X003352Y011340D01*
X003352Y011181D02*
X005101Y011181D01*
X005144Y011023D02*
X003352Y011023D01*
X003352Y010864D02*
X005206Y010864D01*
X005298Y010706D02*
X003352Y010706D01*
X003352Y010547D02*
X005441Y010547D01*
X005652Y010389D02*
X003352Y010389D01*
X003352Y009596D02*
X022932Y009596D01*
X022932Y009614D02*
X022932Y009319D01*
X022943Y009251D01*
X022965Y009185D01*
X022996Y009123D01*
X023037Y009067D01*
X023086Y009018D01*
X023142Y008978D01*
X023204Y008946D01*
X023269Y008925D01*
X023338Y008914D01*
X023372Y008914D01*
X023372Y009614D01*
X022932Y009614D01*
X023372Y009614D01*
X023372Y009614D01*
X023373Y009614D01*
X023372Y009614D01*
X023372Y010314D01*
X023338Y010314D01*
X023269Y010303D01*
X023204Y010282D01*
X023142Y010250D01*
X023086Y010210D01*
X023037Y010161D01*
X022996Y010105D01*
X022965Y010043D01*
X022943Y009977D01*
X022932Y009909D01*
X022932Y009614D01*
X022932Y009755D02*
X013679Y009755D01*
X013921Y009913D02*
X022933Y009913D01*
X022979Y010072D02*
X014035Y010072D01*
X014100Y010230D02*
X023114Y010230D01*
X023372Y010230D02*
X023373Y010230D01*
X023372Y010072D02*
X023373Y010072D01*
X023372Y009913D02*
X023373Y009913D01*
X023372Y009755D02*
X023373Y009755D01*
X023372Y009596D02*
X023373Y009596D01*
X023372Y009437D02*
X023373Y009437D01*
X023372Y009279D02*
X023373Y009279D01*
X023372Y009120D02*
X023373Y009120D01*
X023372Y008962D02*
X023373Y008962D01*
X023173Y008962D02*
X003352Y008962D01*
X003352Y009120D02*
X022998Y009120D01*
X022939Y009279D02*
X003352Y009279D01*
X003352Y009437D02*
X022932Y009437D01*
X023542Y010389D02*
X014102Y010389D01*
X014080Y010547D02*
X023383Y010547D01*
X023225Y010706D02*
X014014Y010706D01*
X013872Y010864D02*
X014003Y010996D01*
X014102Y011235D01*
X014102Y011493D01*
X014003Y011732D01*
X013942Y011794D01*
X014636Y011794D01*
X015389Y011041D01*
X015550Y010881D01*
X015407Y011023D02*
X014015Y011023D01*
X014080Y011181D02*
X015249Y011181D01*
X015090Y011340D02*
X014102Y011340D01*
X014100Y011499D02*
X014932Y011499D01*
X014773Y011657D02*
X014035Y011657D01*
X015593Y012450D02*
X015700Y012450D01*
X015700Y012608D02*
X015434Y012608D01*
X015276Y012767D02*
X015700Y012767D01*
X015700Y012925D02*
X015007Y012925D01*
X015700Y013084D02*
X003352Y013084D01*
X003352Y013243D02*
X015759Y013243D01*
X015856Y013401D02*
X003352Y013401D01*
X003352Y013560D02*
X016047Y013560D01*
X016698Y013560D02*
X020047Y013560D01*
X019856Y013401D02*
X018680Y013401D01*
X018652Y013422D02*
X018719Y013373D01*
X018779Y013314D01*
X018828Y013246D01*
X018866Y013171D01*
X018892Y013091D01*
X018905Y013009D01*
X018905Y012652D01*
X018410Y012652D01*
X018410Y013499D01*
X018414Y013499D01*
X018497Y013486D01*
X018577Y013460D01*
X018652Y013422D01*
X018410Y013401D02*
X018335Y013401D01*
X018335Y013243D02*
X018410Y013243D01*
X018410Y013084D02*
X018335Y013084D01*
X018335Y012925D02*
X018410Y012925D01*
X018410Y012767D02*
X018335Y012767D01*
X018335Y012608D02*
X017045Y012608D01*
X017045Y012450D02*
X017840Y012450D01*
X017840Y012291D02*
X017045Y012291D01*
X017045Y012133D02*
X017854Y012133D01*
X017923Y011974D02*
X016981Y011974D01*
X018410Y012608D02*
X019700Y012608D01*
X019700Y012450D02*
X018905Y012450D01*
X018905Y012291D02*
X019700Y012291D01*
X019700Y012133D02*
X018890Y012133D01*
X018822Y011974D02*
X019764Y011974D01*
X020981Y011974D02*
X021764Y011974D01*
X021700Y012133D02*
X021045Y012133D01*
X021045Y012291D02*
X021700Y012291D01*
X021700Y012450D02*
X021045Y012450D01*
X021045Y012608D02*
X021700Y012608D01*
X021700Y012767D02*
X021045Y012767D01*
X021045Y012925D02*
X021700Y012925D01*
X021700Y013084D02*
X021045Y013084D01*
X020986Y013243D02*
X021759Y013243D01*
X021856Y013401D02*
X020889Y013401D01*
X020698Y013560D02*
X022047Y013560D01*
X022698Y013560D02*
X026047Y013560D01*
X025856Y013401D02*
X024680Y013401D01*
X024652Y013422D02*
X024577Y013460D01*
X024497Y013486D01*
X024414Y013499D01*
X024410Y013499D01*
X024410Y012652D01*
X024335Y012652D01*
X024335Y013499D01*
X024331Y013499D01*
X024248Y013486D01*
X024168Y013460D01*
X024093Y013422D01*
X024026Y013373D01*
X023966Y013314D01*
X023917Y013246D01*
X023879Y013171D01*
X023853Y013091D01*
X023840Y013009D01*
X023840Y012652D01*
X024335Y012652D01*
X024335Y012577D01*
X023840Y012577D01*
X023840Y012220D01*
X023853Y012137D01*
X023879Y012057D01*
X023917Y011982D01*
X023966Y011915D01*
X024026Y011855D01*
X024093Y011806D01*
X024168Y011768D01*
X024248Y011742D01*
X024331Y011729D01*
X024335Y011729D01*
X024335Y012576D01*
X024410Y012576D01*
X024410Y011729D01*
X024414Y011729D01*
X024497Y011742D01*
X024577Y011768D01*
X024652Y011806D01*
X024719Y011855D01*
X024779Y011915D01*
X024828Y011982D01*
X024866Y012057D01*
X024892Y012137D01*
X024905Y012220D01*
X024905Y012577D01*
X024410Y012577D01*
X024410Y012652D01*
X024905Y012652D01*
X024905Y013009D01*
X024892Y013091D01*
X024866Y013171D01*
X024828Y013246D01*
X024779Y013314D01*
X024719Y013373D01*
X024652Y013422D01*
X024410Y013401D02*
X024335Y013401D01*
X024335Y013243D02*
X024410Y013243D01*
X024410Y013084D02*
X024335Y013084D01*
X024335Y012925D02*
X024410Y012925D01*
X024410Y012767D02*
X024335Y012767D01*
X024335Y012608D02*
X023045Y012608D01*
X023045Y012450D02*
X023840Y012450D01*
X023840Y012291D02*
X023045Y012291D01*
X023045Y012133D02*
X023854Y012133D01*
X023923Y011974D02*
X022981Y011974D01*
X023727Y011816D02*
X024080Y011816D01*
X023886Y011657D02*
X026074Y011657D01*
X025867Y011816D02*
X024665Y011816D01*
X024822Y011974D02*
X025764Y011974D01*
X025700Y012133D02*
X024890Y012133D01*
X024905Y012291D02*
X025700Y012291D01*
X025700Y012450D02*
X024905Y012450D01*
X024410Y012450D02*
X024335Y012450D01*
X024335Y012291D02*
X024410Y012291D01*
X024410Y012133D02*
X024335Y012133D01*
X024335Y011974D02*
X024410Y011974D01*
X024410Y011816D02*
X024335Y011816D01*
X024044Y011499D02*
X027951Y011499D01*
X028109Y011657D02*
X026670Y011657D01*
X026878Y011816D02*
X028268Y011816D01*
X028426Y011974D02*
X026981Y011974D01*
X027045Y012133D02*
X028512Y012133D01*
X029343Y012450D02*
X031377Y012450D01*
X031377Y012564D02*
X031872Y012564D01*
X031872Y012564D01*
X031873Y012564D01*
X031873Y012564D01*
X032367Y012564D01*
X032367Y012359D01*
X032077Y012069D01*
X031873Y012069D01*
X031873Y012564D01*
X032367Y012564D01*
X032367Y012769D01*
X032077Y013059D01*
X031873Y013059D01*
X031873Y012564D01*
X031872Y012564D01*
X031872Y013059D01*
X031667Y013059D01*
X031377Y012769D01*
X031377Y012564D01*
X031377Y012608D02*
X029386Y012608D01*
X029386Y012767D02*
X031377Y012767D01*
X031534Y012925D02*
X029386Y012925D01*
X029305Y013084D02*
X038892Y013084D01*
X038892Y013243D02*
X029147Y013243D01*
X026889Y013401D02*
X038892Y013401D01*
X038892Y013560D02*
X026698Y013560D01*
X025759Y013243D02*
X024830Y013243D01*
X024893Y013084D02*
X025700Y013084D01*
X025700Y012925D02*
X024905Y012925D01*
X024905Y012767D02*
X025700Y012767D01*
X025700Y012608D02*
X024410Y012608D01*
X023840Y012767D02*
X023045Y012767D01*
X023045Y012925D02*
X023840Y012925D01*
X023852Y013084D02*
X023045Y013084D01*
X022986Y013243D02*
X023915Y013243D01*
X024064Y013401D02*
X022889Y013401D01*
X019759Y013243D02*
X018830Y013243D01*
X018893Y013084D02*
X019700Y013084D01*
X019700Y012925D02*
X018905Y012925D01*
X018905Y012767D02*
X019700Y012767D01*
X018064Y013401D02*
X016889Y013401D01*
X016986Y013243D02*
X017915Y013243D01*
X017852Y013084D02*
X017045Y013084D01*
X017045Y012925D02*
X017840Y012925D01*
X017840Y012767D02*
X017045Y012767D01*
X012449Y012925D02*
X003352Y012925D01*
X003352Y012767D02*
X012276Y012767D01*
X003352Y013718D02*
X038892Y013718D01*
X038892Y013877D02*
X003352Y013877D01*
X003352Y014035D02*
X038892Y014035D01*
X038892Y014194D02*
X003352Y014194D01*
X003352Y014352D02*
X038892Y014352D01*
X038892Y012925D02*
X032211Y012925D01*
X032367Y012767D02*
X036075Y012767D01*
X036167Y012859D02*
X035877Y012569D01*
X035877Y012364D01*
X036372Y012364D01*
X036372Y012364D01*
X036372Y012859D01*
X036167Y012859D01*
X036372Y012767D02*
X036373Y012767D01*
X036372Y012608D02*
X036373Y012608D01*
X036372Y012450D02*
X036373Y012450D01*
X036828Y012608D02*
X038892Y012608D01*
X038892Y012450D02*
X036867Y012450D01*
X036867Y012291D02*
X038892Y012291D01*
X038892Y012133D02*
X036841Y012133D01*
X036682Y011974D02*
X038892Y011974D01*
X038892Y011816D02*
X036819Y011816D01*
X036938Y011657D02*
X038892Y011657D01*
X038892Y011499D02*
X037004Y011499D01*
X037007Y011340D02*
X038892Y011340D01*
X038892Y011181D02*
X036984Y011181D01*
X036918Y011023D02*
X038892Y011023D01*
X038892Y010864D02*
X036771Y010864D01*
X036393Y010706D02*
X038892Y010706D01*
X038892Y010547D02*
X036234Y010547D01*
X036076Y010389D02*
X038892Y010389D01*
X038892Y010230D02*
X035917Y010230D01*
X035759Y010072D02*
X038892Y010072D01*
X038892Y009913D02*
X035600Y009913D01*
X035442Y009755D02*
X038892Y009755D01*
X038892Y009596D02*
X035283Y009596D01*
X035125Y009437D02*
X038892Y009437D01*
X038892Y009279D02*
X034966Y009279D01*
X034808Y009120D02*
X038892Y009120D01*
X038892Y008962D02*
X034649Y008962D01*
X034490Y008803D02*
X038892Y008803D01*
X038892Y008645D02*
X034332Y008645D01*
X034173Y008486D02*
X038892Y008486D01*
X038892Y008328D02*
X034015Y008328D01*
X033856Y008169D02*
X037546Y008169D01*
X037611Y008184D02*
X037611Y008184D01*
X037101Y008068D02*
X037101Y008068D01*
X036983Y008011D02*
X033698Y008011D01*
X033539Y007852D02*
X036654Y007852D01*
X036630Y007841D02*
X036630Y007841D01*
X036446Y007694D02*
X033381Y007694D01*
X033222Y007535D02*
X036247Y007535D01*
X036222Y007515D02*
X036222Y007515D01*
X036111Y007376D02*
X033064Y007376D01*
X032905Y007218D02*
X035985Y007218D01*
X035896Y007106D02*
X035896Y007106D01*
X035873Y007059D02*
X032923Y007059D01*
X032952Y006901D02*
X035797Y006901D01*
X035720Y006742D02*
X032952Y006742D01*
X032952Y006584D02*
X035657Y006584D01*
X035669Y006635D02*
X035669Y006635D01*
X035621Y006425D02*
X032952Y006425D01*
X032952Y006267D02*
X035585Y006267D01*
X035552Y006125D02*
X035552Y006125D01*
X035552Y006108D02*
X032898Y006108D01*
X032788Y005950D02*
X035552Y005950D01*
X035552Y005928D02*
X035552Y005928D01*
X032657Y008328D02*
X029402Y008328D01*
X029560Y008486D02*
X032816Y008486D01*
X032974Y008645D02*
X029714Y008645D01*
X029772Y008803D02*
X030187Y008803D01*
X029944Y008962D02*
X029800Y008962D01*
X030558Y008803D02*
X031187Y008803D01*
X030944Y008962D02*
X030800Y008962D01*
X031558Y008803D02*
X032187Y008803D01*
X031944Y008962D02*
X031800Y008962D01*
X032558Y008803D02*
X033133Y008803D01*
X033291Y008962D02*
X032800Y008962D01*
X032903Y009120D02*
X033450Y009120D01*
X033608Y009279D02*
X032952Y009279D01*
X032952Y009437D02*
X033767Y009437D01*
X033926Y009596D02*
X032952Y009596D01*
X032952Y009755D02*
X034084Y009755D01*
X034243Y009913D02*
X032952Y009913D01*
X032918Y010072D02*
X034401Y010072D01*
X034560Y010230D02*
X032836Y010230D01*
X032645Y010389D02*
X034718Y010389D01*
X034877Y010547D02*
X032062Y010547D01*
X032099Y010389D02*
X031645Y010389D01*
X031836Y010230D02*
X031908Y010230D01*
X032312Y010706D02*
X035035Y010706D01*
X035194Y010864D02*
X032436Y010864D01*
X032501Y011023D02*
X035352Y011023D01*
X035511Y011181D02*
X032507Y011181D01*
X032487Y011340D02*
X035670Y011340D01*
X035741Y011499D02*
X032421Y011499D01*
X032277Y011657D02*
X035806Y011657D01*
X035926Y011816D02*
X032027Y011816D01*
X031868Y011974D02*
X036062Y011974D01*
X035904Y012133D02*
X032141Y012133D01*
X032300Y012291D02*
X035877Y012291D01*
X035877Y012450D02*
X032367Y012450D01*
X032367Y012608D02*
X035917Y012608D01*
X036670Y012767D02*
X038892Y012767D01*
X031873Y012767D02*
X031872Y012767D01*
X031872Y012925D02*
X031873Y012925D01*
X031872Y012608D02*
X031873Y012608D01*
X031872Y012450D02*
X031873Y012450D01*
X031872Y012291D02*
X031873Y012291D01*
X031872Y012133D02*
X031873Y012133D01*
X027792Y011340D02*
X024203Y011340D01*
X029243Y008169D02*
X032499Y008169D01*
D11*
X032372Y009354D02*
X032372Y009874D01*
X031372Y009874D02*
X031372Y009354D01*
X030372Y009354D02*
X030372Y009874D01*
X029372Y009874D02*
X029372Y009354D01*
X028372Y009354D02*
X028372Y009874D01*
X027372Y009874D02*
X027372Y009354D01*
X026372Y009354D02*
X026372Y009874D01*
X025372Y009874D02*
X025372Y009354D01*
X024372Y009354D02*
X024372Y009874D01*
X023372Y009874D02*
X023372Y009354D01*
X023372Y006874D02*
X023372Y006354D01*
X024372Y006354D02*
X024372Y006874D01*
X025372Y006874D02*
X025372Y006354D01*
X026372Y006354D02*
X026372Y006874D01*
X027372Y006874D02*
X027372Y006354D01*
X028372Y006354D02*
X028372Y006874D01*
X029372Y006874D02*
X029372Y006354D01*
X030372Y006354D02*
X030372Y006874D01*
X031372Y006874D02*
X031372Y006354D01*
X032372Y006354D02*
X032372Y006874D01*
D12*
X013452Y010364D02*
X012792Y010364D01*
X012792Y011364D02*
X013452Y011364D01*
X013452Y012364D02*
X012792Y012364D01*
D13*
X028731Y012924D02*
X028671Y012984D01*
X028867Y012984D01*
X029005Y012846D01*
X029005Y012650D01*
X028867Y012512D01*
X028671Y012512D01*
X028533Y012650D01*
X028533Y012846D01*
X028671Y012984D01*
X028708Y012895D01*
X028830Y012895D01*
X028916Y012809D01*
X028916Y012687D01*
X028830Y012601D01*
X028708Y012601D01*
X028622Y012687D01*
X028622Y012809D01*
X028708Y012895D01*
X028745Y012806D01*
X028793Y012806D01*
X028827Y012772D01*
X028827Y012724D01*
X028793Y012690D01*
X028745Y012690D01*
X028711Y012724D01*
X028711Y012772D01*
X028745Y012806D01*
X029438Y011156D02*
X029378Y011216D01*
X029574Y011216D01*
X029712Y011078D01*
X029712Y010882D01*
X029574Y010744D01*
X029378Y010744D01*
X029240Y010882D01*
X029240Y011078D01*
X029378Y011216D01*
X029415Y011127D01*
X029537Y011127D01*
X029623Y011041D01*
X029623Y010919D01*
X029537Y010833D01*
X029415Y010833D01*
X029329Y010919D01*
X029329Y011041D01*
X029415Y011127D01*
X029452Y011038D01*
X029500Y011038D01*
X029534Y011004D01*
X029534Y010956D01*
X029500Y010922D01*
X029452Y010922D01*
X029418Y010956D01*
X029418Y011004D01*
X029452Y011038D01*
D14*
X031872Y012564D03*
X036372Y012364D03*
D15*
X036372Y011364D03*
X031872Y011164D03*
D16*
X026372Y012262D02*
X026372Y012967D01*
X024372Y012967D02*
X024372Y012262D01*
X022372Y012262D02*
X022372Y012967D01*
X020372Y012967D02*
X020372Y012262D01*
X018372Y012262D02*
X018372Y012967D01*
X016372Y012967D02*
X016372Y012262D01*
D17*
X012872Y007364D03*
X012372Y006614D03*
X013372Y006614D03*
D18*
X015872Y011364D02*
X023372Y011364D01*
X023997Y010739D01*
X027997Y010739D01*
X029122Y011864D01*
X031172Y011864D01*
X031872Y011164D01*
X031689Y010980D01*
X029476Y010980D01*
X028769Y012748D02*
X026372Y012748D01*
X026372Y012614D01*
X015872Y011364D02*
X014872Y012364D01*
X013122Y012364D01*
D19*
X013872Y009364D03*
X013622Y007864D03*
X019935Y005239D03*
X022622Y006989D03*
X029622Y008302D03*
X035247Y005114D03*
X038622Y008489D03*
X038622Y014114D03*
X006997Y005114D03*
X003622Y008489D03*
X003622Y014114D03*
D20*
X013372Y006614D02*
X014372Y007614D01*
X023372Y007614D01*
X023372Y006614D01*
X023372Y007614D02*
X032622Y007614D01*
X036372Y011364D01*
D21*
X039372Y013864D02*
X039372Y014864D01*
X038372Y014864D01*
X039372Y005364D02*
X039372Y004364D01*
X038372Y004364D01*
X003872Y004364D02*
X002872Y004364D01*
X002872Y005864D01*
X002872Y013864D02*
X002872Y014864D01*
X003872Y014864D01*
M02*
